<svg width="11" height="11" viewBox="0 0 11 11" fill="none" xmlns="http://www.w3.org/2000/svg">
<path d="M1.36719 6.24805C0.464844 5.33203 0.0136719 4.33398 0 3.26758C0.0136719 1.44922 1.47656 0 3.26758 0C4.04688 0 4.8125 0.273438 5.38672 0.792969C5.97461 0.273438 6.74023 0 7.5332 0C9.32422 0 10.7734 1.44922 10.7871 3.26758C10.7734 4.33398 10.3223 5.33203 9.41992 6.24805L5.38672 10.2676L1.36719 6.24805ZM8.6543 5.50977C9.37891 4.79883 9.73438 4.0332 9.74805 3.26758C9.73438 2.03711 8.73633 1.05273 7.5332 1.05273C6.84961 1.05273 6.23438 1.35352 5.38672 2.36523C4.56641 1.35352 3.9375 1.05273 3.26758 1.05273C2.05078 1.05273 1.06641 2.03711 1.05273 3.26758C1.06641 4.0332 1.4082 4.79883 2.11914 5.50977L5.38672 8.77734L8.6543 5.50977Z" fill="#FFC300"/>
</svg>
