<?xml version="1.0" encoding="UTF-8"?>
<svg version="1.1" xmlns="http://www.w3.org/2000/svg" width="700" height="520">
<path d="M0 0 C1.99175812 0.14352409 3.98427954 0.27633138 5.97680664 0.40875244 C24.29158455 1.66263938 42.36165585 4.2519146 60.49829102 7.02349854 C61.58219116 7.18835754 62.66609131 7.35321655 63.78283691 7.52307129 C75.93684131 9.38524086 88.03389447 11.45382385 100.09594727 13.84381104 C101.72384438 14.16489334 101.72384438 14.16489334 103.3846283 14.49246216 C104.37741287 14.69364655 105.37019745 14.89483093 106.39306641 15.10211182 C107.27249405 15.28009308 108.15192169 15.45807434 109.05799866 15.64144897 C111.06079102 16.14849854 111.06079102 16.14849854 112.06079102 17.14849854 C112.15575809 19.55198139 112.18637963 21.92660835 112.17431641 24.3303833 C112.17446243 25.08155426 112.17460846 25.83272522 112.17475891 26.60665894 C112.17405965 29.10110313 112.16626666 31.59547356 112.15844727 34.08990479 C112.15658313 35.81483418 112.15515921 37.5397641 112.15415955 39.26469421 C112.15033399 43.81362357 112.14050339 48.3625212 112.12945557 52.91143799 C112.11924225 57.5496986 112.1146621 62.18796431 112.10961914 66.82623291 C112.09888115 75.93366875 112.08180428 85.04108101 112.06079102 94.14849854 C110.95630615 94.61924805 109.85182129 95.08999756 108.71386719 95.57501221 C105.87743151 96.79674768 103.12426447 98.0639073 100.37329102 99.46099854 C97.72626032 100.80036437 95.07984843 102.1390826 92.42016602 103.45318604 C86.16404369 106.5462968 79.97910305 109.76005978 73.81079102 113.02349854 C65.95278714 117.17836763 58.04046482 121.2035124 50.07397461 125.14556885 C47.90374862 126.22673406 45.7415675 127.32293469 43.58032227 128.42193604 C42.84515381 128.79431396 42.10998535 129.16669189 41.35253906 129.550354 C39.93710811 130.26771833 38.52313734 130.98797307 37.11083984 131.71148682 C32.28536001 134.14849854 32.28536001 134.14849854 30.06079102 134.14849854 C30.06079102 134.80849854 30.06079102 135.46849854 30.06079102 136.14849854 C28.90579102 136.64349854 27.75079102 137.13849854 26.56079102 137.64849854 C17.52403611 141.67421801 8.69954158 146.18892933 -0.02124023 150.85552979 C-0.87089355 151.30911865 -1.72054687 151.76270752 -2.59594727 152.2300415 C-4.25249303 153.1176023 -5.90595775 154.01094364 -7.5559082 154.91070557 C-11.3260519 156.93216814 -14.61587973 158.67197928 -18.93920898 159.14849854 C-22.30428004 154.21122215 -24.78281735 149.33509278 -26.89233398 143.75006104 C-28.3594676 140.10412452 -30.15963216 136.65660863 -31.98608398 133.17974854 C-32.93920898 131.14849854 -32.93920898 131.14849854 -32.93920898 129.14849854 C-53.72920898 129.14849854 -74.51920898 129.14849854 -95.93920898 129.14849854 C-96.92920898 132.11849854 -96.92920898 132.11849854 -97.93920898 135.14849854 C-99.15930614 138.20163266 -100.55180127 141.16814123 -101.93920898 144.14849854 C-102.19895508 144.72857666 -102.45870117 145.30865479 -102.72631836 145.90631104 C-103.59100545 147.82959673 -104.48150627 149.73925016 -105.37670898 151.64849854 C-105.65281006 152.27240479 -105.92891113 152.89631104 -106.21337891 153.53912354 C-107.55190054 156.32960738 -108.47201707 157.91840069 -111.28686523 159.30474854 C-114.31864964 159.12614562 -115.77862987 158.144761 -118.17993164 156.3604126 C-121.7160057 153.92451589 -125.73785456 152.3168174 -129.62670898 150.52349854 C-137.37879376 146.89217024 -144.99352622 143.08211986 -152.54345703 139.04937744 C-160.09162952 135.03130908 -167.73811604 131.2194431 -175.40527344 127.43414307 C-181.15964987 124.58209699 -186.82108453 121.6033914 -192.44702148 118.50592041 C-195.65657511 116.75777012 -198.90846114 115.13444871 -202.18920898 113.52349854 C-209.17122283 110.06679806 -216.09319229 106.4996533 -223.00170898 102.89849854 C-223.97720703 102.39109131 -224.95270508 101.88368408 -225.95776367 101.36090088 C-227.35816895 100.62927734 -227.35816895 100.62927734 -228.78686523 99.88287354 C-229.6119458 99.45200439 -230.43702637 99.02113525 -231.28710938 98.57720947 C-234.53689143 96.8265214 -237.73422821 94.97991612 -240.93920898 93.14849854 C-240.93920898 68.06849854 -240.93920898 42.98849854 -240.93920898 17.14849854 C-229.95696983 12.75560287 -217.95865041 11.40923532 -206.31420898 9.64849854 C-204.88546086 9.43007304 -203.45675038 9.21140113 -202.02807617 8.99249268 C-199.23345417 8.56479432 -196.43848375 8.13947217 -193.64331055 7.71539307 C-190.65342251 7.2578054 -187.6667629 6.78676215 -184.68139648 6.30084229 C-167.85630811 3.59379097 -150.89370985 1.81969778 -133.93920898 0.14849854 C-132.09456055 -0.03591797 -132.09456055 -0.03591797 -130.21264648 -0.22406006 C-87.41182132 -4.26381063 -42.83514048 -3.12498794 0 0 Z " fill="#07151F" transform="translate(413.939208984375,254.85150146484375)"/>
<path d="M0 0 C116.49 0 232.98 0 353 0 C353 29.37 353 58.74 353 89 C345.74 89 338.48 89 331 89 C331 66.56 331 44.12 331 21 C316.81 21 302.62 21 288 21 C287.34 22.98 286.68 24.96 286 27 C283.01668592 34.77672884 279.47912997 42.19407527 275.6484375 49.578125 C274.45958682 52.04597618 273.46077398 54.37060839 272.53515625 56.9296875 C271.02270331 61.08793543 269.09738743 64.9516407 267.0625 68.875 C264.33412292 74.22204559 261.81634355 79.55765608 259.69140625 85.1796875 C259 87 259 87 258 89 C204.21 89 150.42 89 95 89 C93.02 84.38 91.04 79.76 89 75 C87.65138212 72.24757169 86.2952258 69.52499353 84.875 66.8125 C82.14874878 61.49906585 79.90887088 56.24336615 77.9921875 50.578125 C76.51611751 46.74266755 74.47315869 43.27389162 72.453125 39.703125 C69.24590362 33.73700351 67.1372227 27.41166809 65 21 C50.81 21 36.62 21 22 21 C22 43.44 22 65.88 22 89 C14.74 89 7.48 89 0 89 C0 59.63 0 30.26 0 0 Z " fill="#081520" transform="translate(173,19)"/>
<path d="M0 0 C11.31829882 -0.06965512 22.63654624 -0.12288997 33.95501614 -0.15543652 C39.2112176 -0.17106094 44.46727189 -0.19224023 49.72338867 -0.22631836 C54.80030314 -0.25902688 59.87707647 -0.27687724 64.95408821 -0.28463173 C66.88647748 -0.29015464 68.81885945 -0.3009394 70.75118828 -0.31719017 C73.46767462 -0.33911733 76.18358522 -0.34196057 78.90014648 -0.34057617 C79.69065399 -0.351362 80.4811615 -0.36214783 81.29562378 -0.3732605 C88.3084814 -0.33484352 95.6665525 1.05123755 100.9375 6 C101.48277344 6.495 102.02804687 6.99 102.58984375 7.5 C105.56910317 10.66907373 106.25258068 12.70425906 106.2746582 16.92700195 C106.28419022 17.92846756 106.29372223 18.92993317 106.30354309 19.96174622 C106.30263168 21.04300278 106.30172028 22.12425934 106.30078125 23.23828125 C106.30506638 24.35180466 106.3093515 25.46532806 106.31376648 26.6125946 C106.31951353 28.97048258 106.3200073 31.3283883 106.31567383 33.6862793 C106.31252152 37.28790744 106.3359427 40.88870829 106.36132812 44.49023438 C106.36360188 46.78124896 106.36430426 49.07226576 106.36328125 51.36328125 C106.372491 52.43846512 106.38170074 53.51364899 106.39118958 54.62141418 C106.35710441 60.15337864 106.19501136 64.26085281 103 69 C100.06239844 71.78695532 97.91299037 73.16090865 94 74 C97.90048501 84.2022061 101.90805481 94.33916636 106.24609375 104.36450195 C108.44545192 109.4965247 110.31307124 114.67769265 112 120 C108.24418379 119.60628685 104.51616459 119.15222677 100.78125 118.59375 C97.50683295 118.12210384 94.39930238 117.98402782 91.09375 118.03125 C85.77174604 117.86378174 81.23235216 117.47538589 77 114 C71.99629416 106.00440123 69.5711378 96.66490996 67.05517578 87.64794922 C65.81571411 83.3628876 64.31472565 79.22025915 62.71459961 75.05883789 C62 73 62 73 62 71 C60.700625 71.020625 59.40125 71.04125 58.0625 71.0625 C53.23243953 71.13916763 48.93235652 70.54803961 44 70 C44 82.87 44 95.74 44 109 C40.98875 108.71125 37.9775 108.4225 34.875 108.125 C33.95831543 108.03879395 33.04163086 107.95258789 32.09716797 107.86376953 C26.9239367 107.35642174 21.78590627 106.70449802 16.64111328 105.96044922 C15.39355255 105.78053436 14.14599182 105.60061951 12.86062622 105.41525269 C11.44461624 105.20970261 11.44461624 105.20970261 10 105 C9.99413376 103.8504332 9.98826752 102.70086639 9.98222351 101.51646423 C9.92496285 90.67270905 9.85218353 79.82915376 9.76428509 68.98560238 C9.71959436 63.41107064 9.68033519 57.83661177 9.65356445 52.26196289 C9.6275188 46.88017954 9.58710701 41.49867679 9.53681374 36.11706734 C9.52015364 34.06585752 9.50863404 32.01459918 9.50238609 29.96333122 C9.49273584 27.08585198 9.464665 24.20908923 9.43237305 21.33178711 C9.43452568 20.06510948 9.43452568 20.06510948 9.4367218 18.77284241 C9.35269984 13.46447679 8.51844209 9.70397418 6 5 C3.9648239 3.5181036 3.9648239 3.5181036 2 3 C2 2.34 2 1.68 2 1 C1.34 0.67 0.68 0.34 0 0 Z " fill="#E9012A" transform="translate(432,132)"/>
<path d="M0 0 C3.05484665 1.17453587 5.91565065 2.42864986 8.75 4.0625 C13.47476426 6.73476871 18.26287623 9.2781517 23.0625 11.8125 C23.83754883 12.22185791 24.61259766 12.63121582 25.41113281 13.05297852 C27.2737038 14.03604831 29.13679708 15.01812843 31 16 C31 16.66 31 17.32 31 18 C31.825 18.2475 32.65 18.495 33.5 18.75 C37.52373471 20.18704811 41.21979024 22.02354515 45 24 C45 24.66 45 25.32 45 26 C45.85851562 26.25652344 46.71703125 26.51304687 47.6015625 26.77734375 C51.14966458 28.05384484 54.12621312 29.65258372 57.375 31.5625 C58.61160779 32.2831897 59.84860237 33.00321603 61.0859375 33.72265625 C61.7262793 34.09664551 62.36662109 34.47063477 63.02636719 34.85595703 C66.33150931 36.77182739 69.66662934 38.63382879 73 40.5 C83.28732646 46.27745912 93.53028884 52.12138269 103.6875 58.125 C111.39660885 62.67662723 119.13923631 67.13159129 127.1875 71.0625 C130.60602285 72.74043077 133.76513925 74.70861107 136.96875 76.76171875 C140.20635701 78.73541379 143.58589129 80.35391187 147 82 C147 82.66 147 83.32 147 84 C147.763125 84.20625 148.52625 84.4125 149.3125 84.625 C157.31417928 87.60867702 164.57998998 92.24781955 171.7109375 96.8984375 C174.49059246 98.23608715 175.9449992 98.46009048 179 98 C182.0439426 96.47121099 182.0439426 96.47121099 185.125 94.375 C186.27719982 93.63446406 187.43087071 92.89621238 188.5859375 92.16015625 C189.44590332 91.60932373 189.44590332 91.60932373 190.32324219 91.04736328 C194.42512715 88.48517829 198.73565251 86.27650551 203 84 C208.22035458 81.18833534 213.28703395 78.21163271 218.3125 75.0625 C223.46227736 71.86421722 228.6826218 69.03930787 234.1484375 66.421875 C237.51127765 64.74506156 240.75139444 62.88463122 244 61 C245.48907779 60.14625306 246.97869648 59.29344909 248.46875 58.44140625 C249.27562256 57.97959961 250.08249512 57.51779297 250.91381836 57.04199219 C259.57485615 52.08722121 268.24855996 47.15568303 276.9375 42.25 C292.15208294 33.71672449 292.15208294 33.71672449 307.1875 24.875 C311.35635855 22.35476622 315.60137427 20.01073201 319.88671875 17.6953125 C323.58706067 15.68032079 327.2645544 13.62690689 330.9375 11.5625 C331.95602051 10.99063965 331.95602051 10.99063965 332.99511719 10.40722656 C338.29262394 7.4224657 343.52993174 4.34645791 348.7421875 1.21484375 C351 0 351 0 353 0 C354.348365 4.7468756 354.52173843 8.27434583 353 13 C348.38601519 18.08345016 342.31920807 21.67953446 336.56933594 25.34521484 C332.28998794 28.10133616 328.15772471 31.06508696 324 34 C322.42783847 35.09743675 320.854929 36.19380286 319.28125 37.2890625 C310.32613263 43.53379775 301.41688228 49.83350043 292.58007812 56.24462891 C287.58036364 59.86887128 282.55161693 63.44851067 277.5 67 C271.63508683 71.12386268 265.80574525 75.29325506 260 79.5 C250.69024511 86.24348241 241.29947664 92.86834937 231.89550781 99.47949219 C223.74896175 105.20888967 215.6303299 110.97262396 207.5625 116.8125 C204.70881925 118.87567313 201.85450995 120.93797435 199 123 C198.43007324 123.4125 197.86014648 123.825 197.27294922 124.25 C195.85221538 125.27581347 194.42637275 126.2945419 193 127.3125 C191.88625 128.11107422 191.88625 128.11107422 190.75 128.92578125 C189 130 189 130 187 130 C187 130.66 187 131.32 187 132 C185.20703125 133.54296875 185.20703125 133.54296875 182.8125 135.1875 C182.03519531 135.73792969 181.25789062 136.28835938 180.45703125 136.85546875 C178 138 178 138 175.51171875 137.92578125 C172.40219434 136.77965794 170.52375996 135.15424898 168 133 C165.46676524 131.14618244 162.88577775 129.36020436 160.3125 127.5625 C154.02780158 123.15118462 147.78002001 118.69299663 141.5625 114.1875 C136.318476 110.38865775 131.05749006 106.62281693 125.73828125 102.9296875 C121.86165667 100.19780085 118.02723413 97.40840187 114.1875 94.625 C108.93354342 90.81719051 103.66222408 87.04715628 98.3125 83.375 C93.72884956 80.22553305 89.22368774 76.98975727 84.75 73.6875 C74.95418083 66.46055867 64.98978889 59.4767063 55.00390625 52.515625 C46.85076899 46.82936234 38.73048479 41.1174199 30.74414062 35.19873047 C24.51184455 30.59894408 18.15386003 26.18060831 11.78710938 21.76953125 C10.20074526 20.6672926 8.61954654 19.55756638 7.04467773 18.43896484 C5.36718539 17.25841083 3.65471508 16.12770698 1.93359375 15.01171875 C0 13 0 13 -0.48828125 9.765625 C-0.43027344 8.60546875 -0.37226563 7.4453125 -0.3125 6.25 C-0.26738281 5.07953125 -0.22226563 3.9090625 -0.17578125 2.703125 C-0.11777344 1.81109375 -0.05976563 0.9190625 0 0 Z " fill="#091621" transform="translate(173,363)"/>
<path d="M0 0 C40.92 0 81.84 0 124 0 C124 0.66 124 1.32 124 2 C123.34 2 122.68 2 122 2 C121.80535156 2.65613281 121.61070312 3.31226563 121.41015625 3.98828125 C119.40467207 8.27146214 116.46767496 11.5832553 113.4375 15.1875 C112.24714551 16.61719849 111.05826962 18.04812974 109.87109375 19.48046875 C109.34443115 20.10848389 108.81776855 20.73649902 108.27514648 21.38354492 C106.92264273 22.98567926 106.92264273 22.98567926 106 25 C94.70491821 25.1015183 83.51733155 25.05596931 72.25 24.22265625 C63.52273024 23.67720189 54.73960032 23.92144994 46 24 C45.9190277 26.43816585 45.85953028 28.87364384 45.8125 31.3125 C45.78736328 32.00279297 45.76222656 32.69308594 45.73632812 33.40429688 C45.66091558 37.26283903 45.66091558 37.26283903 47.05859375 40.77734375 C49.97633961 42.61487786 53.07479071 43.93467981 56.25 45.25 C57.69989235 45.86690884 59.14909616 46.48543809 60.59765625 47.10546875 C61.33258301 47.41919434 62.06750977 47.73291992 62.82470703 48.05615234 C66.76947369 49.7677649 70.6546619 51.60396724 74.54370117 53.43774414 C78.6985184 55.39629398 82.87579499 57.29826123 87.0625 59.1875 C99.11678277 64.77832072 99.11678277 64.77832072 102 71 C102.83362629 74.4492945 103.13390621 77.67105888 103.16113281 81.21411133 C103.17074036 82.22899124 103.1803479 83.24387115 103.19024658 84.289505 C103.19449646 85.37603867 103.19874634 86.46257233 103.203125 87.58203125 C103.20882507 88.71017746 103.21452515 89.83832367 103.22039795 91.00065613 C103.22983305 93.38527493 103.236376 95.76990667 103.24023438 98.15454102 C103.24993675 101.78880727 103.2809738 105.42250706 103.3125 109.05664062 C103.31903095 111.37760082 103.32428106 113.69856505 103.328125 116.01953125 C103.3404718 117.09999222 103.3528186 118.18045319 103.36553955 119.2936554 C103.34418529 126.58230056 102.89830055 132.87875325 97.71484375 138.4609375 C90.20990123 142.71553801 80.27910115 140.27639609 72.35424805 138.20043945 C68.57512256 137.14401516 64.81520829 136.02884095 61.05761719 134.8984375 C57.84477625 133.9543897 54.61893287 133.07945043 51.3828125 132.21875 C50.27728027 131.92170166 49.17174805 131.62465332 48.03271484 131.31860352 C45.9070204 130.74805233 43.77982005 130.18307042 41.65087891 129.62475586 C29.80339089 126.37888203 20.73197603 122.20644742 14.42626953 111.27075195 C12.87054758 107.70313694 12.65178438 105.37509342 12.70703125 101.5078125 C12.71669922 100.30898437 12.72636719 99.11015625 12.73632812 97.875 C12.76146484 96.6375 12.78660156 95.4 12.8125 94.125 C12.83280273 92.23394531 12.83280273 92.23394531 12.85351562 90.3046875 C12.88876565 87.20268546 12.93804496 84.10156466 13 81 C19.59134883 80.70767981 25.83050477 81.81643679 32.3125 82.9375 C33.40884766 83.11990234 34.50519531 83.30230469 35.63476562 83.49023438 C43.72569444 84.86284722 43.72569444 84.86284722 46 86 C46.495 96.395 46.495 96.395 47 107 C57.40595473 109.5602002 57.40595473 109.5602002 68 111 C69.93825264 109.06174736 69.21065176 105.43444932 69.23828125 102.7890625 C69.25038887 101.70315323 69.25038887 101.70315323 69.26274109 100.5953064 C69.27659495 99.06030685 69.28731127 97.52527634 69.29516602 95.99023438 C69.3123803 93.6413336 69.35625094 91.29383988 69.40039062 88.9453125 C69.41051716 87.45573954 69.41903339 85.96615459 69.42578125 84.4765625 C69.45204338 83.42174179 69.45204338 83.42174179 69.47883606 82.34561157 C69.46504936 79.24842179 69.45554601 77.48454886 67.28588867 75.17675781 C64.87862643 73.93751782 62.4892367 72.76259126 60 71.6953125 C59.03610352 71.27926758 58.07220703 70.86322266 57.07910156 70.43457031 C55.55494629 69.78633301 55.55494629 69.78633301 54 69.125 C52.96069336 68.67737305 51.92138672 68.22974609 50.85058594 67.76855469 C45.67071977 65.54304653 40.47570693 63.36516709 35.25 61.25 C17.26144557 53.76571093 17.26144557 53.76571093 12.89819336 44.71435547 C11.85612189 41.56519791 11.72847479 38.94766019 11.69140625 35.6328125 C11.66626953 34.41722656 11.64113281 33.20164063 11.61523438 31.94921875 C11.58018654 29.40760162 11.54891291 26.86592953 11.52148438 24.32421875 C11.43538507 14.01279376 11.43538507 14.01279376 6.46484375 5.29296875 C5.96082031 4.92816406 5.45679688 4.56335938 4.9375 4.1875 C2 2 2 2 0 0 Z " fill="#E8022A" transform="translate(540,132)"/>
<path d="M0 0 C12.11787509 -0.06960003 24.23570239 -0.12286216 36.35373688 -0.15543652 C41.98101375 -0.17107287 47.60815356 -0.19227423 53.23535156 -0.22631836 C58.6688725 -0.25898395 64.10226184 -0.27686829 69.53587341 -0.28463173 C71.60585094 -0.29016229 73.6758215 -0.30096212 75.7457428 -0.31719017 C78.65161541 -0.33905996 81.55694857 -0.34196291 84.46289062 -0.34057617 C85.31309784 -0.351362 86.16330505 -0.36214783 87.03927612 -0.3732605 C93.30476397 -0.34103961 99.12074433 0.54689602 104.05859375 4.75390625 C104.51363281 5.35074219 104.96867187 5.94757813 105.4375 6.5625 C105.91058594 7.16191406 106.38367188 7.76132813 106.87109375 8.37890625 C108.84236898 11.20963019 109.12037541 12.94368882 109.09765625 16.3515625 C109.09515869 17.11807129 109.09266113 17.88458008 109.09008789 18.67431641 C109.08098389 19.64804199 109.07187988 20.62176758 109.0625 21.625 C109.041875 24.71875 109.02125 27.8125 109 31 C97.45 31 85.9 31 74 31 C74 26.71 74 22.42 74 18 C64.76 18.33 55.52 18.66 46 19 C46 40.45 46 61.9 46 84 C55.57 84 65.14 84 75 84 C75 77.73 75 71.46 75 65 C70.71 65 66.42 65 62 65 C62 59.06 62 53.12 62 47 C77.67691783 45.70705832 93.27037994 45.93219991 109 46 C109 64.15 109 82.3 109 101 C104.88015625 101.20496094 100.7603125 101.40992188 96.515625 101.62109375 C93.19847337 101.78724958 89.88134236 101.95380538 86.56422424 102.12062836 C83.08046423 102.29572348 79.59667346 102.47013947 76.11279297 102.64282227 C72.10112406 102.84169861 68.08962461 103.04383103 64.078125 103.24609375 C62.84950745 103.3065538 61.62088989 103.36701385 60.3550415 103.42930603 C53.74432921 103.76527903 47.15541326 104.19827307 40.56227112 104.78791809 C36.92891654 105.08865472 33.33388704 105.20602347 29.6875 105.25 C28.39199219 105.27578125 27.09648437 105.3015625 25.76171875 105.328125 C21.49411189 104.95587269 18.72465401 104.11820228 15 102 C11.11973562 97.36187127 10.42592376 93.57136892 10.50170898 87.703125 C10.49619019 86.89258667 10.49067139 86.08204834 10.48498535 85.24694824 C10.47569364 83.49550798 10.47553673 81.74400015 10.48357964 79.99255371 C10.49624124 77.21767569 10.48489146 74.44378775 10.46754456 71.66894531 C10.44087149 66.77874896 10.43524783 61.88879639 10.43664551 56.99853516 C10.43887588 49.17185726 10.42471076 41.34548092 10.38105965 33.5189209 C10.37123815 30.79012113 10.37992934 28.06179762 10.38975525 25.33300781 C10.3836095 23.65429373 10.37669725 21.97558221 10.36889648 20.296875 C10.38047539 19.16517883 10.38047539 19.16517883 10.39228821 18.01062012 C10.34688063 13.26414118 9.51493403 10.02805752 7 6 C4.52338502 3.75149517 4.52338502 3.75149517 2 2 C1.34 1.34 0.68 0.68 0 0 Z " fill="#E8022A" transform="translate(218,132)"/>
<path d="M0 0 C39.27 0 78.54 0 119 0 C119 6.93 119 13.86 119 21 C109 22 109 22 93 22 C93 56.32 93 90.64 93 126 C61 134 61 134 59 134 C59 97.7 59 61.4 59 24 C42.88918074 24.72029813 42.88918074 24.72029813 26.8125 25.9375 C21.4353145 25.9375 18.43888258 25.92434242 14.55078125 22.125 C12.08709101 19.23554505 10.05087319 16.15703273 8.13769531 12.88232422 C6.93082866 10.88555557 5.59834801 9.03515356 4.2109375 7.16015625 C2 4 2 4 2 2 C1.34 2 0.68 2 0 2 C0 1.34 0 0.68 0 0 Z " fill="#EA0029" transform="translate(35,132)"/>
<path d="M0 0 C30.03 0 60.06 0 91 0 C91 5.94 91 11.88 91 18 C75.82 18 60.64 18 45 18 C45 25.59 45 33.18 45 41 C48.403125 40.979375 51.80625 40.95875 55.3125 40.9375 C65.91550677 40.90626539 76.41787422 41.34374414 87 42 C87 48.27 87 54.54 87 61 C72.9526705 61.10889403 59.03303184 60.68038942 45 60 C45 67.59 45 75.18 45 83 C47.7225 83.06058594 50.445 83.12117188 53.25 83.18359375 C55.90773901 83.24552912 58.5654415 83.30885607 61.22314453 83.37231445 C63.06002505 83.41543447 64.89693976 83.45712406 66.73388672 83.49731445 C69.38519564 83.55557707 72.03633606 83.61910539 74.6875 83.68359375 C75.49928711 83.70030624 76.31107422 83.71701874 77.14746094 83.73423767 C77.92766602 83.75418289 78.70787109 83.77412811 79.51171875 83.79467773 C80.18678467 83.81022202 80.86185059 83.8257663 81.55737305 83.84178162 C85.0522694 84.06815955 88.52482421 84.56560303 92 85 C92 90.94 92 96.88 92 103 C84.27610089 103.06896338 76.70155527 103.06881294 69 102.53125 C57.68084435 101.76034235 46.34050774 101.64398219 35 101.4375 C32.76041058 101.39419392 30.52082716 101.35057632 28.28125 101.30664062 C22.85423051 101.20084123 17.42715 101.09886601 12 101 C11.99120064 99.34748734 11.99120064 99.34748734 11.98222351 97.66159058 C11.92498305 87.2737183 11.85221433 76.88605509 11.76428509 66.49839592 C11.7195788 61.15812568 11.6803231 55.81793178 11.65356445 50.47753906 C11.62753427 45.3226882 11.58713353 40.16813105 11.53681374 35.01346207 C11.52014316 33.04795106 11.50863007 31.08238926 11.50238609 29.11681747 C11.49274719 26.36125732 11.46469022 23.60644893 11.43237305 20.85107422 C11.43380814 20.04043015 11.43524323 19.22978607 11.4367218 18.39457703 C11.35637862 13.54310742 10.64859145 10.21876955 8 6 C6.02385975 4.30932615 6.02385975 4.30932615 3.8125 3.1875 C2.5323708 2.47477942 1.25847168 1.75030022 0 1 C0 0.67 0 0.34 0 0 Z " fill="#E7032B" transform="translate(332,132)"/>
<path d="M0 0 C14.85 0 29.7 0 45 0 C45 36.63 45 73.26 45 111 C18.30357143 115.64285714 18.30357143 115.64285714 10 116 C9.99413376 114.71040375 9.98826752 113.4208075 9.98222351 112.09213257 C9.92500826 99.93834266 9.85225264 87.78473188 9.76428509 75.6311245 C9.71955951 69.38283961 9.68030798 63.13462025 9.65356445 56.88623047 C9.62755365 50.85608179 9.58716643 44.82618501 9.53681374 38.79619217 C9.52013009 36.49574543 9.50862516 34.1952551 9.50238609 31.89475632 C9.49276159 28.67224475 9.46472091 25.45037984 9.43237305 22.22802734 C9.43380814 21.27712219 9.43524323 20.32621704 9.4367218 19.34649658 C9.3528685 13.43898067 8.7198675 8.78604432 4.39453125 4.35546875 C3.87246094 3.97003906 3.35039062 3.58460938 2.8125 3.1875 C1.884375 2.465625 0.95625 1.74375 0 1 C0 0.67 0 0.34 0 0 Z " fill="#EA0029" transform="translate(162,132)"/>
<path d="M0 0 C0 7.92 0 15.84 0 24 C1.69125 22.948125 3.3825 21.89625 5.125 20.8125 C14.20310086 15.19991845 23.41974976 9.81736961 32.61914062 4.40698242 C34.25321488 3.44131693 35.85224007 2.41456385 37.41674805 1.33984375 C40.5561702 -0.28846631 42.65372396 -0.34501886 46.17578125 -0.29296875 C47.74066284 -0.28172974 47.74066284 -0.28172974 49.3371582 -0.27026367 C50.649021 -0.24295166 51.96088379 -0.21563965 53.3125 -0.1875 C57.499375 -0.125625 61.68625 -0.06375 66 0 C66 9.57 66 19.14 66 29 C69.465 26.73125 72.93 24.4625 76.5 22.125 C84.2661666 17.04985558 92.05624393 12.02288645 99.94921875 7.14697266 C102.72367993 5.43203176 105.3934646 3.70566804 108.0078125 1.75 C111.56754146 -0.33193025 113.72462014 -0.44798402 117.8125 -0.3125 C119.52373047 -0.27576172 119.52373047 -0.27576172 121.26953125 -0.23828125 C124 0 124 0 125 1 C127.71542652 20.70374555 127.71542652 20.70374555 123.85009766 26.81933594 C120.37537268 29.99216431 115.7226136 32 111 32 C111 24.74 111 17.48 111 10 C108.916875 11.4025 106.83375 12.805 104.6875 14.25 C103.29383414 15.16018063 101.89940154 16.06918925 100.50390625 16.9765625 C97.45123513 18.98330644 94.54024049 21.09951915 91.65234375 23.3359375 C78.32799477 33.23253011 68.51725632 33.09506672 52 32 C52 22.43 52 12.86 52 3 C45.51370235 6.53798054 39.71848165 9.70848492 33.77734375 13.8984375 C32 15 32 15 30 15 C30.763125 15.763125 31.52625 16.52625 32.3125 17.3125 C33.199375 18.199375 34.08625 19.08625 35 20 C35.598125 20.556875 36.19625 21.11375 36.8125 21.6875 C38 23 38 23 38 25 C38.66 25 39.32 25 40 25 C42.625 27.375 42.625 27.375 45 30 C45 30.66 45 31.32 45 32 C31.11210762 33.38026906 31.11210762 33.38026906 25.93359375 29.99609375 C23.75589422 27.76246614 21.81209937 25.53693911 20 23 C16.35371092 24.35265563 13.17432828 26.0092483 9.875 28.0625 C5.83870621 30.5713817 2.79020402 32.13376093 -2.01171875 32.09765625 C-3.14770508 32.09282227 -3.14770508 32.09282227 -4.30664062 32.08789062 C-5.48516602 32.07532227 -5.48516602 32.07532227 -6.6875 32.0625 C-7.48478516 32.05798828 -8.28207031 32.05347656 -9.10351562 32.04882812 C-11.06904257 32.0370585 -13.03453085 32.01912348 -15 32 C-16.7482484 28.5035032 -16.22708836 24.53951945 -16.25 20.6875 C-16.270625 19.83220703 -16.29125 18.97691406 -16.3125 18.09570312 C-16.34244975 13.2625621 -16.27666964 9.83227884 -13 6 C-10.625 4.19921875 -10.625 4.19921875 -8 2.6875 C-7.13375 2.17574219 -6.2675 1.66398437 -5.375 1.13671875 C-3 0 -3 0 0 0 Z " fill="#F9FAFA" transform="translate(296,55)"/>
<path d="M0 0 C0 7.92 0 15.84 0 24 C1.69125 22.948125 3.3825 21.89625 5.125 20.8125 C14.20310086 15.19991845 23.41974976 9.81736961 32.61914062 4.40698242 C34.299754 3.41381436 35.96133097 2.3880885 37.6081543 1.33984375 C40.67339292 -0.37721551 42.8273876 -0.30239382 46.3125 -0.1875 C47.91544922 -0.14689453 47.91544922 -0.14689453 49.55078125 -0.10546875 C50.35902344 -0.07066406 51.16726563 -0.03585938 52 0 C52 0.99 52 1.98 52 3 C51.31035156 3.36351562 50.62070312 3.72703125 49.91015625 4.1015625 C44.3099949 7.09753359 38.96910742 10.23697669 33.77734375 13.8984375 C32 15 32 15 30 15 C30.763125 15.763125 31.52625 16.52625 32.3125 17.3125 C33.199375 18.199375 34.08625 19.08625 35 20 C35.598125 20.556875 36.19625 21.11375 36.8125 21.6875 C38 23 38 23 38 25 C38.66 25 39.32 25 40 25 C42.625 27.375 42.625 27.375 45 30 C45 30.66 45 31.32 45 32 C31.11210762 33.38026906 31.11210762 33.38026906 25.93359375 29.99609375 C23.75589422 27.76246614 21.81209937 25.53693911 20 23 C16.35371092 24.35265563 13.17432828 26.0092483 9.875 28.0625 C5.83870621 30.5713817 2.79020402 32.13376093 -2.01171875 32.09765625 C-3.14770508 32.09282227 -3.14770508 32.09282227 -4.30664062 32.08789062 C-5.48516602 32.07532227 -5.48516602 32.07532227 -6.6875 32.0625 C-7.48478516 32.05798828 -8.28207031 32.05347656 -9.10351562 32.04882812 C-11.06904257 32.0370585 -13.03453085 32.01912348 -15 32 C-16.7482484 28.5035032 -16.22708836 24.53951945 -16.25 20.6875 C-16.270625 19.83220703 -16.29125 18.97691406 -16.3125 18.09570312 C-16.34244975 13.2625621 -16.27666964 9.83227884 -13 6 C-10.625 4.19921875 -10.625 4.19921875 -8 2.6875 C-7.13375 2.17574219 -6.2675 1.66398437 -5.375 1.13671875 C-3 0 -3 0 0 0 Z " fill="#F1F3F4" transform="translate(296,55)"/>
<path d="M0 0 C3.155625 -0.020625 6.31125 -0.04125 9.5625 -0.0625 C11.0331189 -0.07615601 11.0331189 -0.07615601 12.53344727 -0.09008789 C17.46363704 -0.10558377 22.15185848 0.06941713 27 1 C28.90849948 2.90849948 28.13059633 6.31478774 28.1328125 8.84375 C28.13424759 9.87018616 28.13424759 9.87018616 28.13571167 10.9173584 C28.1363933 12.36661877 28.13454023 13.81588218 28.13037109 15.26513672 C28.12502252 17.49062928 28.1303166 19.71592001 28.13671875 21.94140625 C28.13605797 23.34635461 28.1347768 24.75130285 28.1328125 26.15625 C28.13168457 27.44337891 28.13055664 28.73050781 28.12939453 30.05664062 C28 33 28 33 27 34 C17.95987103 34.78214395 8.92759775 33.22086807 0 32 C0 21.44 0 10.88 0 0 Z " fill="#FEF5F7" transform="translate(476,151)"/>
<path d="M0 0 C1.87514648 0 3.75020616 -0.03394796 5.625 -0.0703125 C7.08332829 -0.08894078 8.54166194 -0.10715321 10 -0.125 C10.73734375 -0.14175781 11.4746875 -0.15851563 12.234375 -0.17578125 C14.15706296 -0.19332402 16.08001683 -0.10344737 18 0 C20.88560657 2.88560657 20.61393971 5.99344564 20.875 9.875 C20.98328125 10.95587891 20.98328125 10.95587891 21.09375 12.05859375 C21.33346779 15.48403487 21.27593995 17.56570042 19.4140625 20.49609375 C16.24287278 22.4716731 14.20810809 22.37035395 10.5 22.1875 C6.25095711 21.91799668 6.25095711 21.91799668 2.078125 22.484375 C-1.16391856 23.28879182 -4.43194829 23.10295531 -7.75 23.0625 C-10.1425 23.041875 -12.535 23.02125 -15 23 C-15 15.74 -15 8.48 -15 1 C-9.72918998 0.34114875 -5.21286821 -0.10425736 0 0 Z " fill="#131F28" transform="translate(303,283)"/>
<path d="M0 0 C14.85 0 29.7 0 45 0 C45 36.63 45 73.26 45 111 C18.30357143 115.64285714 18.30357143 115.64285714 10 116 C9.98969254 114.70596252 9.97938507 113.41192505 9.96876526 112.07867432 C9.87108958 99.89490423 9.76836097 87.71118587 9.66066074 75.52750015 C9.6054516 69.26346856 9.55203471 62.99943228 9.50268555 56.73535156 C9.45501251 50.6923386 9.40266847 44.64938264 9.34705925 38.60643768 C9.32664906 36.29873826 9.30793377 33.99102321 9.29092598 31.6832962 C9.26685257 28.45579879 9.23680176 25.22840904 9.20532227 22.00097656 C9.1995668 21.04288086 9.19381134 20.08478516 9.18788147 19.09765625 C9.17809265 18.21708557 9.16830383 17.33651489 9.15821838 16.42926025 C9.15176583 15.66601566 9.14531328 14.90277107 9.1386652 14.11639786 C8.99800242 11.96951167 8.58751825 10.06564192 8 8 C8.66 8 9.32 8 10 8 C10 8.66 10 9.32 10 10 C10.66 10 11.32 10 12 10 C11.67 44.65 11.34 79.3 11 115 C14.63 114.01 18.26 113.02 22 112 C22 111.67 22 111.34 22 111 C32.395 110.505 32.395 110.505 43 110 C43 74.03 43 38.06 43 1 C31.12 1 19.24 1 7 1 C6.67 2.32 6.34 3.64 6 5 C3.98079663 3.69593116 1.98075027 2.36176581 0 1 C0 0.67 0 0.34 0 0 Z " fill="#D43653" transform="translate(162,132)"/>
<path d="M0 0 C3.05484665 1.17453587 5.91565065 2.42864986 8.75 4.0625 C13.47476426 6.73476871 18.26287623 9.2781517 23.0625 11.8125 C23.83754883 12.22185791 24.61259766 12.63121582 25.41113281 13.05297852 C27.2737038 14.03604831 29.13679708 15.01812843 31 16 C29.02 16.99 29.02 16.99 27 18 C26.67 17.01 26.34 16.02 26 15 C25.01 15 24.02 15 23 15 C23 15.99 23 16.98 23 18 C22.67 18.99 22.34 19.98 22 21 C23.32 22.32 24.64 23.64 26 25 C25.34 25 24.68 25 24 25 C24 25.66 24 26.32 24 27 C24.66 27 25.32 27 26 27 C26 27.66 26 28.32 26 29 C27.32 29.66 28.64 30.32 30 31 C29.67 31.66 29.34 32.32 29 33 C25.91737505 31.55116188 23.19737266 29.83743917 20.41015625 27.8828125 C19.54326172 27.27566406 18.67636719 26.66851562 17.78320312 26.04296875 C16.88537109 25.41003906 15.98753906 24.77710938 15.0625 24.125 C13.72155273 23.18720703 13.72155273 23.18720703 12.35351562 22.23046875 C10.63628637 21.02445622 8.92540778 19.80933532 7.22192383 18.58398438 C5.47474256 17.3384386 3.68905342 16.14689657 1.890625 14.9765625 C0 13 0 13 -0.48828125 9.765625 C-0.43027344 8.60546875 -0.37226563 7.4453125 -0.3125 6.25 C-0.26738281 5.07953125 -0.22226563 3.9090625 -0.17578125 2.703125 C-0.11777344 1.81109375 -0.05976563 0.9190625 0 0 Z " fill="#141F29" transform="translate(173,363)"/>
<path d="M0 0 C9.12 0 9.12 0 15 3 C17.10131385 5.10131385 16.18514741 9.54146322 16.1875 12.4375 C16.19974609 13.22705078 16.21199219 14.01660156 16.22460938 14.83007812 C16.22987279 16.88807435 16.12206285 18.94562009 16 21 C14 23 14 23 11.7578125 23.23046875 C10.88898438 23.21628906 10.02015625 23.20210938 9.125 23.1875 C8.26132812 23.18105469 7.39765625 23.17460937 6.5078125 23.16796875 C4 23 4 23 0 22 C0 14.74 0 7.48 0 0 Z " fill="#E6E9EB" transform="translate(458,289)"/>
<path d="M0 0 C0 8.91 0 17.82 0 27 C-0.33 25.68 -0.66 24.36 -1 23 C-1.33 23.66 -1.66 24.32 -2 25 C-2.99 25 -3.98 25 -5 25 C-5.66 24.34 -6.32 23.68 -7 23 C-8.98 23.99 -8.98 23.99 -11 25 C-11.33 24.01 -11.66 23.02 -12 22 C-12.66 22 -13.32 22 -14 22 C-15.70993434 20.3777546 -17.37347684 18.70586575 -19 17 C-19.598125 16.443125 -20.19625 15.88625 -20.8125 15.3125 C-22 14 -22 14 -22 12 C-20.3034668 10.67138672 -20.3034668 10.67138672 -17.94921875 9.1796875 C-17.10552734 8.64472656 -16.26183594 8.10976562 -15.39257812 7.55859375 C-14.49990234 7.00300781 -13.60722656 6.44742188 -12.6875 5.875 C-11.80642578 5.31167969 -10.92535156 4.74835937 -10.01757812 4.16796875 C-3.38213151 0 -3.38213151 0 0 0 Z " fill="#111D27" transform="translate(348,58)"/>
<path d="M0 0 C2 2 2 2 2.16015625 4.12890625 C2.12792969 4.93199219 2.09570312 5.73507812 2.0625 6.5625 C2.00809809 8.04081272 1.97973733 9.52082541 2 11 C2.33 11.33 2.66 11.66 3 12 C2.91062197 13.52519276 2.75462854 15.04681929 2.5625 16.5625 C2.46066406 17.38878906 2.35882813 18.21507812 2.25390625 19.06640625 C2.17011719 19.70449219 2.08632812 20.34257812 2 21 C0.44033782 21.508783 -1.12289241 22.00663469 -2.6875 22.5 C-3.55761719 22.7784375 -4.42773438 23.056875 -5.32421875 23.34375 C-8 24 -8 24 -13 24 C-13 16.41 -13 8.82 -13 1 C-4.03125 -0.28125 -4.03125 -0.28125 0 0 Z " fill="#F0F4F5" transform="translate(238,289)"/>
<path d="M0 0 C9.9609375 -0.1953125 9.9609375 -0.1953125 13 0 C15.88560657 2.88560657 15.61393971 5.99344564 15.875 9.875 C15.9471875 10.59558594 16.019375 11.31617188 16.09375 12.05859375 C16.33408725 15.49288659 16.28083343 17.56299578 14.3984375 20.4921875 C9.91525253 23.31060672 5.15022066 22.22392264 0 22 C0 14.74 0 7.48 0 0 Z " fill="#F3F6F7" transform="translate(308,283)"/>
<path d="M0 0 C0 18.15 0 36.3 0 55 C-7.59 55 -15.18 55 -23 55 C-23 54.67 -23 54.34 -23 54 C-12.605 53.505 -12.605 53.505 -2 53 C-2 36.17 -2 19.34 -2 2 C-6.475625 2.165 -10.95125 2.33 -15.5625 2.5 C-25.71774501 2.86220147 -35.83925531 3.11165654 -46 3 C-46 7.95 -46 12.9 -46 18 C-42.04 18 -38.08 18 -34 18 C-34 18.33 -34 18.66 -34 19 C-38.29 19 -42.58 19 -47 19 C-47 13.06 -47 7.12 -47 1 C-31.32308217 -0.29294168 -15.72962006 -0.06780009 0 0 Z " fill="#D43653" transform="translate(327,178)"/>
<path d="M0 0 C0 0.66 0 1.32 0 2 C-7.59 2.33 -15.18 2.66 -23 3 C-23.03758423 7.46708496 -23.03758423 7.46708496 -23.07592773 12.02441406 C-23.15934071 21.8552313 -23.24803451 31.68599575 -23.33933926 41.51674271 C-23.39454366 47.47810262 -23.44795979 53.43946746 -23.49731445 59.40087891 C-23.54499449 65.15212042 -23.59733878 70.90330216 -23.65294075 76.65447235 C-23.67334777 78.8505276 -23.69206359 81.04659923 -23.70907402 83.24268341 C-23.73315447 86.31451852 -23.76320429 89.38624081 -23.79467773 92.45800781 C-23.8004332 93.36934982 -23.80618866 94.28069183 -23.81211853 95.21965027 C-23.82190735 96.05815018 -23.83169617 96.89665009 -23.84178162 97.76055908 C-23.85146044 98.85011839 -23.85146044 98.85011839 -23.8613348 99.961689 C-24.00518818 102.07626375 -24.42482509 103.96383298 -25 106 C-26.32 105.67 -27.64 105.34 -29 105 C-28.01 105 -27.02 105 -26 105 C-26 70.68 -26 36.36 -26 1 C-7.42857143 -0.16071429 -7.42857143 -0.16071429 0 0 Z " fill="#F9C3D0" transform="translate(154,153)"/>
<path d="M0 0 C0.99 0 1.98 0 3 0 C3 6.6 3 13.2 3 20 C1.68 20.33 0.36 20.66 -1 21 C-1 19.35 -1 17.7 -1 16 C-1.93972656 16.05220703 -1.93972656 16.05220703 -2.8984375 16.10546875 C-3.71570313 16.13253906 -4.53296875 16.15960938 -5.375 16.1875 C-6.18710937 16.22230469 -6.99921875 16.25710938 -7.8359375 16.29296875 C-8.55007813 16.19628906 -9.26421875 16.09960938 -10 16 C-12.08133467 12.877998 -12.2737822 12.06733011 -12.25 8.5 C-12.25773437 7.33984375 -12.25773437 7.33984375 -12.265625 6.15625 C-12 4 -12 4 -10 1 C-7.87109375 0.7421875 -7.87109375 0.7421875 -5.4375 0.875 C-3.95944833 0.94594648 -2.47974207 0.99420845 -1 1 C-0.67 0.67 -0.34 0.34 0 0 Z " fill="#07131C" transform="translate(414,286)"/>
<path d="M0 0 C1.98 0 3.96 0 6 0 C8.31993846 7.28640866 10.47536437 14.50387484 12 22 C10.35 21.67 8.7 21.34 7 21 C7 19.68 7 18.36 7 17 C4.03 17 1.06 17 -2 17 C-2.33 18.98 -2.66 20.96 -3 23 C-4.32 23 -5.64 23 -7 23 C-6.40336519 20.47717364 -5.79794859 17.9569878 -5.1875 15.4375 C-5.02185547 14.73302734 -4.85621094 14.02855469 -4.68554688 13.30273438 C-3.54083058 8.61587709 -2.01178987 4.38673952 0 0 Z " fill="#ECEFF0" transform="translate(252,287)"/>
<path d="M0 0 C1.98 0 3.96 0 6 0 C7.00446104 3.2903223 8.00280756 6.58246822 9 9.875 C9.28617187 10.81214844 9.57234375 11.74929688 9.8671875 12.71484375 C10.13789063 13.61074219 10.40859375 14.50664062 10.6875 15.4296875 C10.93886719 16.25710449 11.19023437 17.08452148 11.44921875 17.93701172 C12 20 12 20 12 22 C10.68 22 9.36 22 8 22 C7.67 20.35 7.34 18.7 7 17 C4.03 17 1.06 17 -2 17 C-2.33 18.65 -2.66 20.3 -3 22 C-4.32 22 -5.64 22 -7 22 C-5.29269214 14.60166594 -3.4065157 6.81303139 0 0 Z " fill="#EBEFF0" transform="translate(335,282)"/>
<path d="M0 0 C1.51400391 0.01740234 1.51400391 0.01740234 3.05859375 0.03515625 C4.07050781 0.04417969 5.08242188 0.05320313 6.125 0.0625 C7.29869141 0.07990234 7.29869141 0.07990234 8.49609375 0.09765625 C8.49609375 0.42765625 8.49609375 0.75765625 8.49609375 1.09765625 C6.4453125 1.32552083 4.39453125 1.55338542 2.34375 1.78125 C0.48469146 1.91652239 0.48469146 1.91652239 -0.50390625 3.09765625 C-0.59786682 5.03072123 -0.62134142 6.96724463 -0.61743164 8.90258789 C-0.61735611 10.14379898 -0.61728058 11.38501007 -0.61720276 12.66383362 C-0.61209536 14.02849365 -0.60687935 15.39315327 -0.6015625 16.7578125 C-0.59969825 18.14643808 -0.59827438 19.53506432 -0.59727478 20.9236908 C-0.59345012 24.5848674 -0.58362028 28.24600455 -0.5725708 31.90716553 C-0.56235557 35.64057888 -0.55777692 39.37399859 -0.55273438 43.10742188 C-0.54199795 50.4375201 -0.52440159 57.76757763 -0.50390625 65.09765625 C11.87109375 64.60265625 11.87109375 64.60265625 24.49609375 64.09765625 C24.82609375 58.81765625 25.15609375 53.53765625 25.49609375 48.09765625 C21.53609375 48.09765625 17.57609375 48.09765625 13.49609375 48.09765625 C13.49609375 47.76765625 13.49609375 47.43765625 13.49609375 47.09765625 C17.78609375 47.09765625 22.07609375 47.09765625 26.49609375 47.09765625 C26.49609375 53.36765625 26.49609375 59.63765625 26.49609375 66.09765625 C6.93628939 67.5738679 6.93628939 67.5738679 -2.50390625 67.09765625 C-4.31806508 65.28349742 -3.63161198 62.47319924 -3.63330078 60.03320312 C-3.63645294 58.73515747 -3.6396051 57.43711182 -3.64285278 56.09973145 C-3.641063 54.67195604 -3.63901205 53.24418094 -3.63671875 51.81640625 C-3.63739183 50.36291487 -3.63836189 48.90942361 -3.63961792 47.45593262 C-3.64109471 44.40599498 -3.63894095 41.35608659 -3.63427734 38.30615234 C-3.62858005 34.38835066 -3.63185916 30.47061747 -3.63784981 26.5528183 C-3.64145594 23.55034871 -3.6403166 20.54789548 -3.63772202 17.54542542 C-3.63705289 16.10046887 -3.63788067 14.65551086 -3.64020157 13.21055603 C-3.6427289 11.19440742 -3.63819677 9.17825363 -3.63330078 7.16210938 C-3.63250519 6.01262817 -3.63170959 4.86314697 -3.63088989 3.67883301 C-3.46232765 0.25249442 -3.42319801 0.13351006 0 0 Z " fill="#FEE5F0" transform="translate(266.50390625,149.90234375)"/>
<path d="M0 0 C1.32 0 2.64 0 4 0 C4.06058594 1.28777344 4.12117188 2.57554687 4.18359375 3.90234375 C4.26798247 5.58074159 4.3526313 7.25912636 4.4375 8.9375 C4.47681641 9.78763672 4.51613281 10.63777344 4.55664062 11.51367188 C4.59853516 12.32255859 4.64042969 13.13144531 4.68359375 13.96484375 C4.72025146 14.7137085 4.75690918 15.46257324 4.79467773 16.23413086 C4.81771063 18.02461326 4.81771063 18.02461326 6 19 C7.65 19 9.3 19 11 19 C11.495 10.09 11.495 10.09 12 1 C13.65 1.33 15.3 1.66 17 2 C17.08132187 4.56314499 17.14064175 7.12368418 17.1875 9.6875 C17.21263672 10.40873047 17.23777344 11.12996094 17.26367188 11.87304688 C17.3258423 16.41148768 17.07330947 19.5458674 14 23 C11.66015625 23.6640625 11.66015625 23.6640625 9.0625 23.625 C8.20785156 23.63789063 7.35320312 23.65078125 6.47265625 23.6640625 C4 23 4 23 1.69921875 21.04296875 C-0.65018711 16.83564193 -0.44400156 13.41442265 -0.25 8.6875 C-0.23195313 7.85154297 -0.21390625 7.01558594 -0.1953125 6.15429688 C-0.14841126 4.10236772 -0.07667411 2.05103244 0 0 Z " fill="#F7FBFB" transform="translate(436,286)"/>
<path d="M0 0 C0 1.32 0 2.64 0 4 C-3.63 4 -7.26 4 -11 4 C-11 5.98 -11 7.96 -11 10 C-7.7 10 -4.4 10 -1 10 C-1 10.99 -1 11.98 -1 13 C-4.3 13 -7.6 13 -11 13 C-11 14.98 -11 16.96 -11 19 C-7.37 19 -3.74 19 0 19 C0 20.32 0 21.64 0 23 C-4.95 23 -9.9 23 -15 23 C-15 15.74 -15 8.48 -15 1 C-9.74120549 0.34265069 -5.20615812 -0.10846163 0 0 Z " fill="#F0F4F4" transform="translate(303,283)"/>
<path d="M0 0 C39.27 0 78.54 0 119 0 C119 6.93 119 13.86 119 21 C112.73743878 21.62625612 107.08084097 22.11891674 100.875 22.0625 C99.57304687 22.05347656 98.27109375 22.04445312 96.9296875 22.03515625 C95.47949219 22.01775391 95.47949219 22.01775391 94 22 C94 21.67 94 21.34 94 21 C102.10769671 19.55634017 109.76289258 18.7803438 118 19 C118 13.06 118 7.12 118 1 C80.05 1 42.1 1 3 1 C3.99 2.32 4.98 3.64 6 5 C5.67 5.99 5.34 6.98 5 8 C2 4.25 2 4.25 2 2 C1.34 2 0.68 2 0 2 C0 1.34 0 0.68 0 0 Z " fill="#C91336" transform="translate(35,132)"/>
<path d="M0 0 C1.07894531 0.04640625 2.15789062 0.0928125 3.26953125 0.140625 C4.35621094 0.17671875 5.44289063 0.2128125 6.5625 0.25 C7.39394531 0.29640625 8.22539062 0.3428125 9.08203125 0.390625 C9.08203125 1.380625 9.08203125 2.370625 9.08203125 3.390625 C4.62703125 3.885625 4.62703125 3.885625 0.08203125 4.390625 C-0.24796875 5.710625 -0.57796875 7.030625 -0.91796875 8.390625 C-0.29148437 8.50019531 0.335 8.60976563 0.98046875 8.72265625 C1.79773438 8.88121094 2.615 9.03976562 3.45703125 9.203125 C4.26914062 9.35394531 5.08125 9.50476563 5.91796875 9.66015625 C8.08203125 10.390625 8.08203125 10.390625 10.08203125 13.390625 C9.76277872 17.22165542 9.23749423 19.15743053 7.08203125 22.390625 C4.26171875 22.68359375 4.26171875 22.68359375 0.95703125 22.578125 C-0.13867188 22.55105469 -1.234375 22.52398437 -2.36328125 22.49609375 C-3.62785156 22.44388672 -3.62785156 22.44388672 -4.91796875 22.390625 C-4.91796875 21.400625 -4.91796875 20.410625 -4.91796875 19.390625 C-1.94796875 19.060625 1.02203125 18.730625 4.08203125 18.390625 C4.41203125 17.070625 4.74203125 15.750625 5.08203125 14.390625 C3.82390625 14.1225 2.56578125 13.854375 1.26953125 13.578125 C-1.156534 12.95980041 -2.8135377 12.45915788 -4.91796875 11.078125 C-6.34898989 8.66327683 -6.32221766 7.15299252 -5.91796875 4.390625 C-4.2569942 1.25703385 -3.58396013 0.47978047 0 0 Z " fill="#ECF0F1" transform="translate(272.91796875,284.609375)"/>
<path d="M0 0 C1.00289063 0.10183594 2.00578125 0.20367187 3.0390625 0.30859375 C3.80992187 0.39238281 4.58078125 0.47617187 5.375 0.5625 C5.375 1.8825 5.375 3.2025 5.375 4.5625 C2.405 4.5625 -0.565 4.5625 -3.625 4.5625 C-4.80135297 6.91520593 -4.75859359 8.383252 -4.75 11 C-4.75257813 11.78246094 -4.75515625 12.56492187 -4.7578125 13.37109375 C-4.70882548 15.74145347 -4.70882548 15.74145347 -3.625 18.5625 C-0.655 18.5625 2.315 18.5625 5.375 18.5625 C5.375 19.8825 5.375 21.2025 5.375 22.5625 C-4.54705323 23.14615019 -4.54705323 23.14615019 -8.625 19.5625 C-11.04022581 15.53712365 -11.22499934 11.14756957 -10.625 6.5625 C-8.07378009 0.18445022 -6.65798223 -0.69676558 0 0 Z " fill="#DCE2E4" transform="translate(407.625,283.4375)"/>
<path d="M0 0 C1.65 0 3.3 0 5 0 C5 6.27 5 12.54 5 19 C8.3 19 11.6 19 15 19 C14.67 20.32 14.34 21.64 14 23 C9.38 23 4.76 23 0 23 C0 15.41 0 7.82 0 0 Z " fill="#DDE2E5" transform="translate(369,282)"/>
<path d="M0 0 C0.33 0 0.66 0 1 0 C1 34.98 1 69.96 1 106 C3.97 105.01 3.97 105.01 7 104 C9.9921875 104.0234375 9.9921875 104.0234375 12.875 104.375 C13.84179688 104.48585938 14.80859375 104.59671875 15.8046875 104.7109375 C16.52914062 104.80632812 17.25359375 104.90171875 18 105 C14 107 14 107 0 110 C0 73.7 0 37.4 0 0 Z " fill="#C51434" transform="translate(94,156)"/>
<path d="M0 0 C1.65 0 3.3 0 5 0 C5 6.6 5 13.2 5 20 C7.97 20 10.94 20 14 20 C14 21.32 14 22.64 14 24 C7.07 23.505 7.07 23.505 0 23 C0 15.41 0 7.82 0 0 Z " fill="#D7DBDD" transform="translate(417,284)"/>
<path d="M0 0 C0.66 0 1.32 0 2 0 C2.77142586 2.74005435 3.12409704 5.16818961 3.12025452 8.01165771 C3.12162918 8.7996727 3.12300385 9.58768768 3.12442017 10.39958191 C3.12082489 11.25481949 3.11722961 12.11005707 3.11352539 12.99121094 C3.11367142 13.89887711 3.11381744 14.80654327 3.1139679 15.74171448 C3.11327171 18.73929237 3.10549302 21.73680798 3.09765625 24.734375 C3.09579103 26.8137407 3.09436762 28.89310685 3.09336853 30.97247314 C3.08955157 36.44363622 3.07972826 41.91477272 3.06866455 47.38592529 C3.05843281 52.96951946 3.05386713 58.55311791 3.04882812 64.13671875 C3.03810528 75.0911575 3.02103868 86.04557654 3 97 C3.99 97 4.98 97 6 97 C6 95.68 6 94.36 6 93 C7.65 93.33 9.3 93.66 11 94 C10.505 94.99 10.505 94.99 10 96 C12.64 96.33 15.28 96.66 18 97 C18 97.66 18 98.32 18 99 C19.98 99 21.96 99 24 99 C24 99.33 24 99.66 24 100 C21.45805839 99.85811015 18.91652007 99.71160845 16.375 99.5625 C15.66214844 99.52318359 14.94929688 99.48386719 14.21484375 99.44335938 C13.51230469 99.40146484 12.80976563 99.35957031 12.0859375 99.31640625 C11.4470459 99.27974854 10.8081543 99.24309082 10.14990234 99.20532227 C7.40718705 98.94338455 4.71546637 98.46163883 2 98 C1.98969254 96.84599197 1.97938507 95.69198395 1.96876526 94.50300598 C1.87102263 83.62927989 1.76828766 72.75561092 1.66066074 61.88197803 C1.6054889 56.29169988 1.55207804 50.70141643 1.50268555 45.11108398 C1.4549574 39.71644765 1.4026115 34.32187409 1.34705925 28.92731285 C1.32667399 26.86884817 1.30795464 24.81036629 1.29092598 22.75187111 C1.2667972 19.86942965 1.23675421 16.98710611 1.20532227 14.10473633 C1.1995668 13.25309402 1.19381134 12.40145172 1.18788147 11.52400208 C1.138683 7.55654062 0.97711787 3.87293936 0 0 Z " fill="#C7183A" transform="translate(440,139)"/>
<path d="M0 0 C5.40784597 0.11890838 10.81553268 0.24319608 16.22314453 0.37231445 C18.06002505 0.41543447 19.89693976 0.45712406 21.73388672 0.49731445 C24.38519564 0.55557707 27.03633606 0.61910539 29.6875 0.68359375 C30.49928711 0.70030624 31.31107422 0.71701874 32.14746094 0.73423767 C32.92766602 0.75418289 33.70787109 0.77412811 34.51171875 0.79467773 C35.18678467 0.81022202 35.86185059 0.8257663 36.55737305 0.84178162 C40.0522694 1.06815955 43.52482421 1.56560303 47 2 C47 7.94 47 13.88 47 20 C36.27113518 20.09579344 25.69752326 19.79662407 15 19 C15 18.67 15 18.34 15 18 C24.9 18 34.8 18 45 18 C45 13.05 45 8.1 45 3 C41.65875 3.0309375 41.65875 3.0309375 38.25 3.0625 C25.49302107 3.116338 12.74421586 2.50852437 0 2 C0 1.34 0 0.68 0 0 Z " fill="#D22343" transform="translate(377,215)"/>
<path d="M0 0 C0.75749839 4.53797649 1.02865515 8.49207006 0 13 C-3.5672223 16.82798417 -7.48667403 19.40080781 -12 22 C-12.33 21.01 -12.66 20.02 -13 19 C-12.525625 18.5875 -12.05125 18.175 -11.5625 17.75 C-9.78913999 15.76383679 -9.16605902 14.65694438 -9 12 C-10.27056525 10.31267956 -10.27056525 10.31267956 -12 9 C-12.66 8.34 -13.32 7.68 -14 7 C-12.04480616 5.82807953 -10.0857461 4.6626071 -8.125 3.5 C-7.03445313 2.8503125 -5.94390625 2.200625 -4.8203125 1.53125 C-2 0 -2 0 0 0 Z " fill="#19222B" transform="translate(526,363)"/>
<path d="M0 0 C3.375 4.5 3.375 4.5 3.29296875 8.546875 C3.28172974 9.68914551 3.28172974 9.68914551 3.27026367 10.85449219 C3.24295166 11.81000977 3.21563965 12.76552734 3.1875 13.75 C3.125625 16.8025 3.06375 19.855 3 23 C-8.55 23 -20.1 23 -32 23 C-32 18.71 -32 14.42 -32 10 C-41.24 10 -50.48 10 -60 10 C-60 9.67 -60 9.34 -60 9 C-56.0495047 8.80775624 -52.09865416 8.62903319 -48.14697266 8.46289062 C-46.80240434 8.40444525 -45.45799202 8.34228924 -44.11376953 8.27636719 C-42.18306663 8.18232557 -40.2516797 8.10267308 -38.3203125 8.0234375 C-36.57645264 7.94488525 -36.57645264 7.94488525 -34.79736328 7.86474609 C-32 8 -32 8 -30 10 C-30 13.63 -30 17.26 -30 21 C-19.77 21.33 -9.54 21.66 1 22 C0.67 14.74 0.34 7.48 0 0 Z " fill="#CB2241" transform="translate(324,140)"/>
<path d="M0 0 C0.598125 0.78375 1.19625 1.5675 1.8125 2.375 C5.35475181 6.62570217 8.77150082 7.61888701 14 9 C13.125 12.875 13.125 12.875 12 14 C10.48071962 14.07179964 8.95832518 14.08392007 7.4375 14.0625 C6.61121094 14.05347656 5.78492188 14.04445313 4.93359375 14.03515625 C4.29550781 14.02355469 3.65742188 14.01195312 3 14 C2.67 14.99 2.34 15.98 2 17 C2 15.68 2 14.36 2 13 C1.34 13 0.68 13 0 13 C-0.99 14.485 -0.99 14.485 -2 16 C-2.99 12.7 -3.98 9.4 -5 6 C-4.01 6 -3.02 6 -2 6 C-2 4.68 -2 3.36 -2 2 C-1.34 2 -0.68 2 0 2 C0 1.34 0 0.68 0 0 Z " fill="#0F1B25" transform="translate(265,290)"/>
<path d="M0 0 C0.66 0 1.32 0 2 0 C2 0.66 2 1.32 2 2 C2.66 2 3.32 2 4 2 C3.67 36.65 3.34 71.3 3 107 C7.455 106.01 7.455 106.01 12 105 C15.06640625 104.8046875 15.06640625 104.8046875 17.5625 104.875 C18.40941406 104.89304687 19.25632813 104.91109375 20.12890625 104.9296875 C20.74636719 104.95289063 21.36382812 104.97609375 22 105 C22 105.33 22 105.66 22 106 C19.79248152 106.33868777 17.58394089 106.67071689 15.375 107 C14.14523438 107.185625 12.91546875 107.37125 11.6484375 107.5625 C8.3783017 107.9546362 5.28642422 108.03241849 2 108 C1.9845388 106.05894379 1.9845388 106.05894379 1.96876526 104.07867432 C1.87108958 91.89490423 1.76836097 79.71118587 1.66066074 67.52750015 C1.6054516 61.26346856 1.55203471 54.99943228 1.50268555 48.73535156 C1.45501251 42.6923386 1.40266847 36.64938264 1.34705925 30.60643768 C1.32664906 28.29873826 1.30793377 25.99102321 1.29092598 23.6832962 C1.26685257 20.45579879 1.23680176 17.22840904 1.20532227 14.00097656 C1.19668907 12.56383301 1.19668907 12.56383301 1.18788147 11.09765625 C1.17809265 10.21708557 1.16830383 9.33651489 1.15821838 8.42926025 C1.15176583 7.66601566 1.14531328 6.90277107 1.1386652 6.11639786 C0.99800242 3.96951167 0.58751825 2.06564192 0 0 Z " fill="#C91C3B" transform="translate(170,140)"/>
<path d="M0 0 C0.99 0 1.98 0 3 0 C3 6.27 3 12.54 3 19 C2.01 19 1.02 19 0 19 C-0.33 16.03 -0.66 13.06 -1 10 C-3.27864583 9.77213542 -5.55729167 9.54427083 -7.8359375 9.31640625 C-10 9 -10 9 -12 8 C-11.67 6.35 -11.34 4.7 -11 3 C-5.555 2.505 -5.555 2.505 0 2 C0 1.34 0 0.68 0 0 Z " fill="#05111B" transform="translate(284,285)"/>
<path d="M0 0 C4.6000056 1.45263335 4.6000056 1.45263335 6.14512634 3.56703186 C7.37706772 7.07313373 7.30017821 10.50528659 7.30297852 14.17749023 C7.31141785 14.99909637 7.31985718 15.82070251 7.32855225 16.66720581 C7.35432505 19.38100774 7.36647088 22.09470081 7.37890625 24.80859375 C7.39508369 26.6966284 7.41226395 28.5846547 7.43040466 30.47267151 C7.47609735 35.44373712 7.51089456 40.41481398 7.54260254 45.38598633 C7.59446282 53.33938151 7.65973385 61.29265323 7.73081779 69.24589729 C7.75361212 72.0227615 7.76990995 74.79961022 7.78553772 77.57652283 C7.79894913 79.28205533 7.81256434 80.98758625 7.82641602 82.69311523 C7.82902939 83.46366745 7.83164276 84.23421967 7.83433533 85.02812195 C7.87071694 88.80575458 8.09281957 92.32636779 9 96 C9.99 96 10.98 96 12 96 C12.33 97.32 12.66 98.64 13 100 C9.11007827 98.52451245 7.76689557 96.73090533 6 93 C5.71698116 90.19638173 5.59252328 87.61686672 5.61523438 84.81665039 C5.6098616 84.00625809 5.60448883 83.19586578 5.59895325 82.36091614 C5.58919301 80.60672956 5.58622579 78.85249479 5.58930969 77.09828377 C5.59379562 74.31939358 5.57976561 71.54113755 5.56091309 68.76231384 C5.52416396 62.86238616 5.51042683 56.96252527 5.5 51.0625 C5.48791293 44.22747031 5.46633726 37.39275015 5.41999817 30.55785942 C5.40644591 27.82466797 5.41059553 25.0918696 5.41540527 22.35865784 C5.40606217 20.67668155 5.39589273 18.99470958 5.38476562 17.31274414 C5.39091385 16.55670898 5.39706207 15.80067383 5.40339661 15.02172852 C5.33161715 8.82785355 3.36609948 5.04914922 0 0 Z " fill="#C90B2B" transform="translate(223,135)"/>
<path d="M0 0 C1.32 0 2.64 0 4 0 C4 6.27 4 12.54 4 19 C7.3 19 10.6 19 14 19 C14 19.99 14 20.98 14 22 C9.38 22 4.76 22 0 22 C0 14.74 0 7.48 0 0 Z " fill="#F8FDFD" transform="translate(351,282)"/>
<path d="M0 0 C0.66 0 1.32 0 2 0 C2.07631204 7.25904578 2.12870984 14.51798737 2.16479492 21.77734375 C2.17984452 24.24483099 2.2002889 26.71229165 2.22631836 29.1796875 C2.26286926 32.73444191 2.27976518 36.28884139 2.29296875 39.84375 C2.30845261 40.93989624 2.32393646 42.03604248 2.33988953 43.16540527 C2.34127107 49.50922741 1.64530571 54.21510999 -1 60 C-1.33 60 -1.66 60 -2 60 C-2 58.02 -2 56.04 -2 54 C-1.34 54 -0.68 54 0 54 C0 36.18 0 18.36 0 0 Z " fill="#C51434" transform="translate(641,208)"/>
<path d="M0 0 C14.85 0 29.7 0 45 0 C45 0.33 45 0.66 45 1 C30.81 1 16.62 1 2 1 C2.33 7.6 2.66 14.2 3 21 C9.6 21.33 16.2 21.66 23 22 C23 22.33 23 22.66 23 23 C15.41 23 7.82 23 0 23 C0 15.41 0 7.82 0 0 Z " fill="#FFEAF1" transform="translate(377,150)"/>
<path d="M0 0 C29.04 0 58.08 0 88 0 C88 0.33 88 0.66 88 1 C61.6 1.33 35.2 1.66 8 2 C8.33 3.32 8.66 4.64 9 6 C8.01 6.495 8.01 6.495 7 7 C6.54625 6.525625 6.0925 6.05125 5.625 5.5625 C4.06741796 3.90972192 4.06741796 3.90972192 2 3 C2 2.34 2 1.68 2 1 C1.34 0.67 0.68 0.34 0 0 Z " fill="#CA1135" transform="translate(432,132)"/>
<path d="M0 0 C1.65 0.33 3.3 0.66 5 1 C5.08132187 3.56314499 5.14064175 6.12368418 5.1875 8.6875 C5.22520508 9.7693457 5.22520508 9.7693457 5.26367188 10.87304688 C5.32672457 15.47589338 4.77816458 18.30307233 2 22 C1.01 21.67 0.02 21.34 -1 21 C-0.67 14.07 -0.34 7.14 0 0 Z " fill="#D9DDDF" transform="translate(448,287)"/>
<path d="M0 0 C2.475 0.495 2.475 0.495 5 1 C5.33 2.98 5.66 4.96 6 7 C6.66 7 7.32 7 8 7 C8.7218172 8.128237 9.3971641 9.2864371 10.04760742 10.45727539 C11.58198576 12.67746137 12.39152575 13.80885953 14.99185181 14.6257019 C17.43387325 14.80929035 19.79148687 14.78769877 22.23828125 14.68359375 C23.11904831 14.67368912 23.99981537 14.66378448 24.90727234 14.65357971 C27.7107345 14.61450214 30.51022907 14.52670142 33.3125 14.4375 C35.21674018 14.40237717 37.12104196 14.37043985 39.02539062 14.34179688 C43.68511424 14.26476274 48.34188539 14.14403277 53 14 C53 14.66 53 15.32 53 16 C47.70668507 16.28283166 42.41462835 16.53055172 37.1171875 16.72265625 C33.28383603 16.86786809 29.50742187 17.13574885 25.6953125 17.55859375 C14.23110763 18.58972984 14.23110763 18.58972984 10.13330078 15.66992188 C5.6318491 11.26668832 1.99635834 5.98907503 0 0 Z " fill="#CB1134" transform="translate(41,140)"/>
<path d="M0 0 C0.33 0 0.66 0 1 0 C1 6.27 1 12.54 1 19 C-13.03637522 19.10880911 -26.98231007 18.71100114 -41 18 C-41 17.67 -41 17.34 -41 17 C-27.8 17 -14.6 17 -1 17 C-1 11.72 -1 6.44 -1 1 C-0.67 0.67 -0.34 0.34 0 0 Z " fill="#D1334F" transform="translate(418,174)"/>
<path d="M0 0 C3.70891391 0.11048593 7.41686811 0.24097114 11.125 0.375 C12.17171875 0.4059375 13.2184375 0.436875 14.296875 0.46875 C15.31523437 0.50742188 16.33359375 0.54609375 17.3828125 0.5859375 C18.31496582 0.6173584 19.24711914 0.6487793 20.20751953 0.68115234 C23 1 23 1 29 3 C29 13.89 29 24.78 29 36 C28.67 36 28.34 36 28 36 C27.505 20.655 27.505 20.655 27 5 C22.85789489 4.4082707 19.0627275 3.87215093 14.94140625 3.68359375 C14.06162109 3.64169922 13.18183594 3.59980469 12.27539062 3.55664062 C11.38013672 3.51732422 10.48488281 3.47800781 9.5625 3.4375 C8.64017578 3.39431641 7.71785156 3.35113281 6.76757812 3.30664062 C4.51183837 3.20145069 2.25600501 3.09930893 0 3 C0 2.01 0 1.02 0 0 Z " fill="#D00F33" transform="translate(476,148)"/>
<path d="M0 0 C1.3743291 1.29103643 2.70896357 2.6256709 4 4 C5.32 4.66 6.64 5.32 8 6 C7.34 8.97 6.68 11.94 6 15 C3.20225555 12.47300502 1.52373708 10.79709385 1 7 C1 6.67 1 6.34 1 6 C0.67 5.34 0.34 4.68 0 4 C-0.33 5.98 -0.66 7.96 -1 10 C-1.33 10 -1.66 10 -2 10 C-2.66 7.69 -3.32 5.38 -4 3 C-8.29 2.67 -12.58 2.34 -17 2 C-17 1.67 -17 1.34 -17 1 C-15.10630916 0.63455089 -13.20991218 0.28310825 -11.3125 -0.0625 C-10.25675781 -0.25972656 -9.20101563 -0.45695312 -8.11328125 -0.66015625 C-5.04755086 -0.99480938 -2.93619415 -0.89317794 0 0 Z " fill="#121E27" transform="translate(325,281)"/>
<path d="M0 0 C2.52475462 2.52475462 3.04307871 4.73497997 4.125 8.125 C4.47820313 9.22070312 4.83140625 10.31640625 5.1953125 11.4453125 C5.46085938 12.28835937 5.72640625 13.13140625 6 14 C3.41536498 13.71749338 0.83268865 13.4243774 -1.75 13.125 C-2.47960937 13.04636719 -3.20921875 12.96773437 -3.9609375 12.88671875 C-7.66777257 12.44863824 -10.80452172 12.0013785 -14 10 C-11.36 10 -8.72 10 -6 10 C-6 9.34 -6 8.68 -6 8 C-4.68 8 -3.36 8 -2 8 C-1.67 7.34 -1.34 6.68 -1 6 C-1 6.66 -1 7.32 -1 8 C-0.34 8 0.32 8 1 8 C0.67 5.36 0.34 2.72 0 0 Z " fill="#E31538" transform="translate(538,238)"/>
<path d="M0 0 C0.90862793 -0.00193359 1.81725586 -0.00386719 2.75341797 -0.00585938 C3.73068848 -0.00134766 4.70795898 0.00316406 5.71484375 0.0078125 C6.70242676 0.00974609 7.69000977 0.01167969 8.70751953 0.01367188 C17.05330424 0.06226451 25.33385224 0.46542636 33.65234375 1.1328125 C33.65234375 1.4628125 33.65234375 1.7928125 33.65234375 2.1328125 C21.77234375 2.4628125 9.89234375 2.7928125 -2.34765625 3.1328125 C-3.63212544 5.70175088 -3.67742769 7.89857587 -3.91015625 10.7578125 C-3.99394531 11.76070312 -4.07773437 12.76359375 -4.1640625 13.796875 C-4.22464844 14.56773437 -4.28523437 15.33859375 -4.34765625 16.1328125 C-4.67765625 16.1328125 -5.00765625 16.1328125 -5.34765625 16.1328125 C-5.3745072 13.65357449 -5.39442172 11.1746241 -5.41015625 8.6953125 C-5.42272461 7.63473633 -5.42272461 7.63473633 -5.43554688 6.55273438 C-5.44419213 4.74587691 -5.39985636 2.93893647 -5.34765625 1.1328125 C-3.77082398 -0.44401977 -2.18665106 0.0030277 0 0 Z " fill="#FBB6C5" transform="translate(590.34765625,154.8671875)"/>
<path d="M0 0 C1.83391542 0.11614798 3.66712628 0.24343233 5.5 0.375 C7.03140625 0.47941406 7.03140625 0.47941406 8.59375 0.5859375 C12.451655 1.05490302 16.22973121 2.0574328 20 3 C20 9.27 20 15.54 20 22 C17.50881047 18.2632157 17.7934774 16.25548181 17.875 11.8125 C17.89304687 10.54019531 17.91109375 9.26789063 17.9296875 7.95703125 C17.95289063 6.98121094 17.97609375 6.00539062 18 5 C17.31550781 4.86722656 16.63101563 4.73445312 15.92578125 4.59765625 C12.66587046 3.93174657 9.4283893 3.19043388 6.1875 2.4375 C5.02605469 2.16808594 3.86460937 1.89867187 2.66796875 1.62109375 C1.34732422 1.31365234 1.34732422 1.31365234 0 1 C0 0.67 0 0.34 0 0 Z " fill="#D21E3E" transform="translate(566,215)"/>
<path d="M0 0 C0.33 0 0.66 0 1 0 C1 11.88 1 23.76 1 36 C-8.405 34.515 -8.405 34.515 -18 33 C-18 32.34 -18 31.68 -18 31 C-14.61783069 30.83894432 -12.15965729 30.9446087 -8.9375 32.0625 C-5.69432787 33.35917097 -5.69432787 33.35917097 -1 32 C-0.67 21.44 -0.34 10.88 0 0 Z " fill="#CF1135" transform="translate(610,210)"/>
<path d="M0 0 C0 7.26 0 14.52 0 22 C-0.33 22 -0.66 22 -1 22 C-1.33 17.05 -1.66 12.1 -2 7 C-2 10.3 -2 13.6 -2 17 C-5 14 -5 14 -5.29296875 11.73828125 C-5.25816406 10.93777344 -5.22335937 10.13726562 -5.1875 9.3125 C-5.16042969 8.50425781 -5.13335937 7.69601563 -5.10546875 6.86328125 C-5.07066406 6.24839844 -5.03585937 5.63351563 -5 5 C-5.66 4.67 -6.32 4.34 -7 4 C-2.25 0 -2.25 0 0 0 Z " fill="#2B343B" transform="translate(407,65)"/>
<path d="M0 0 C14.52 0 29.04 0 44 0 C44 0.33 44 0.66 44 1 C31.79 1 19.58 1 7 1 C6.67 2.32 6.34 3.64 6 5 C3.98079663 3.69593116 1.98075027 2.36176581 0 1 C0 0.67 0 0.34 0 0 Z " fill="#CD173A" transform="translate(162,132)"/>
<path d="M0 0 C2.64 0.33 5.28 0.66 8 1 C8.625 2.875 8.625 2.875 9 5 C7 7 7 7 4.8359375 7.1953125 C3.61777344 7.16050781 3.61777344 7.16050781 2.375 7.125 C1.55773437 7.10695313 0.74046875 7.08890625 -0.1015625 7.0703125 C-0.72804688 7.04710937 -1.35453125 7.02390625 -2 7 C-2.33 7.99 -2.66 8.98 -3 10 C-2.67 8.02 -2.34 6.04 -2 4 C-0.68 3.67 0.64 3.34 2 3 C1.34 2.67 0.68 2.34 0 2 C0 1.34 0 0.68 0 0 Z " fill="#15212B" transform="translate(270,297)"/>
<path d="M0 0 C4.16468745 -0.03924323 7.94150823 0.01612321 12 1 C12 1.33 12 1.66 12 2 C8.7 2 5.4 2 2 2 C2 10.91 2 19.82 2 29 C0 27 0 27 -0.22705078 24.29443359 C-0.21657715 23.17375488 -0.20610352 22.05307617 -0.1953125 20.8984375 C-0.18886719 19.68671875 -0.18242188 18.475 -0.17578125 17.2265625 C-0.15902344 15.95554688 -0.14226563 14.68453125 -0.125 13.375 C-0.11146484 11.456875 -0.11146484 11.456875 -0.09765625 9.5 C-0.07402303 6.33314833 -0.04107629 3.16666576 0 0 Z " fill="#CA1E3D" transform="translate(553,213)"/>
<path d="M0 0 C2.5636947 0.28318132 5.12561526 0.57622493 7.6875 0.875 C8.40873047 0.95363281 9.12996094 1.03226562 9.87304688 1.11328125 C13.90935446 1.59247758 17.25537313 2.33572139 21 4 C22.429572 4.40417219 23.86702882 4.78200684 25.3125 5.125 C27.1378125 5.558125 27.1378125 5.558125 29 6 C29 6.66 29 7.32 29 8 C22.39867961 7.3850185 16.34537846 5.82360905 10 3.9375 C9.03449219 3.65583984 8.06898438 3.37417969 7.07421875 3.08398438 C4.71449184 2.39475721 2.35654915 1.69999989 0 1 C0 0.67 0 0.34 0 0 Z " fill="#D22042" transform="translate(573,258)"/>
<path d="M0 0 C0.66 0 1.32 0 2 0 C2 4.29 2 8.58 2 13 C1.01 13.33 0.02 13.66 -1 14 C-1.33 13.67 -1.66 13.34 -2 13 C-2.99 14.485 -2.99 14.485 -4 16 C-4.66 15.67 -5.32 15.34 -6 15 C-5.525625 14.13375 -5.05125 13.2675 -4.5625 12.375 C-3.06765105 9.14612626 -2.41781687 6.50966174 -2 3 C-1.34 3 -0.68 3 0 3 C0 2.01 0 1.02 0 0 Z " fill="#131F28" transform="translate(456,293)"/>
<path d="M0 0 C0.66 0.33 1.32 0.66 2 1 C0.35 6.28 -1.3 11.56 -3 17 C-4.32 16.67 -5.64 16.34 -7 16 C-7 15.01 -7 14.02 -7 13 C-6.34 13 -5.68 13 -5 13 C-4.80664062 12.14535156 -4.61328125 11.29070312 -4.4140625 10.41015625 C-4.15367187 9.30542969 -3.89328125 8.20070313 -3.625 7.0625 C-3.36976563 5.96035156 -3.11453125 4.85820312 -2.8515625 3.72265625 C-2.57054687 2.82417969 -2.28953125 1.92570312 -2 1 C-1.34 0.67 -0.68 0.34 0 0 Z " fill="#121B23" transform="translate(250,287)"/>
<path d="M0 0 C0.33 0 0.66 0 1 0 C1.04937279 4.66307014 1.08570627 9.32598873 1.10986328 13.98925781 C1.11993188 15.57619883 1.13358767 17.16312125 1.15087891 18.75 C1.17509001 21.02869247 1.18647422 23.30714006 1.1953125 25.5859375 C1.20563507 26.29744965 1.21595764 27.00896179 1.22659302 27.74203491 C1.22699422 29.49631665 1.12202209 31.24996709 1 33 C0.34 33.66 -0.32 34.32 -1 35 C-3.72869407 34.96712417 -6.2966618 34.43602229 -9 34 C-9 33.67 -9 33.34 -9 33 C-7.865625 32.87625 -6.73125 32.7525 -5.5625 32.625 C-4.386875 32.41875 -3.21125 32.2125 -2 32 C-0.55037817 29.10075634 -0.77873519 26.47699645 -0.68359375 23.2421875 C-0.66281265 22.57913605 -0.64203156 21.91608459 -0.62062073 21.23294067 C-0.55520769 19.11373306 -0.49627895 16.994401 -0.4375 14.875 C-0.39430691 13.43878919 -0.35069236 12.00259098 -0.30664062 10.56640625 C-0.19953501 7.04440406 -0.09824425 3.52226175 0 0 Z " fill="#EF8C9D" transform="translate(609,209)"/>
<path d="M0 0 C0.66 0 1.32 0 2 0 C2 0.99 2 1.98 2 3 C2.66 3 3.32 3 4 3 C4 3.66 4 4.32 4 5 C3.01 5 2.02 5 1 5 C0.67 3.35 0.34 1.7 0 0 Z M-5 5 C-3.02 5 -1.04 5 1 5 C0.67 6.98 0.34 8.96 0 11 C-0.66 11 -1.32 11 -2 11 C-1.34 11.66 -0.68 12.32 0 13 C0.33 13.99 0.66 14.98 1 16 C0.34 17.32 -0.32 18.64 -1 20 C-2.32 15.05 -3.64 10.1 -5 5 Z " fill="#17232C" transform="translate(347,282)"/>
<path d="M0 0 C-0.33 1.65 -0.66 3.3 -1 5 C-3.31 5.33 -5.62 5.66 -8 6 C-8 4.02 -8 2.04 -8 0 C-4.71023192 -1.09658936 -3.28696233 -0.79953138 0 0 Z " fill="#222A32" transform="translate(237,303)"/>
<path d="M0 0 C3.3 0 6.6 0 10 0 C9.67 1.65 9.34 3.3 9 5 C6.03 5 3.06 5 0 5 C0 3.35 0 1.7 0 0 Z " fill="#0B151D" transform="translate(292,287)"/>
<path d="M0 0 C2.31 0 4.62 0 7 0 C7.38218767 1.65614657 7.71395102 3.32457024 8 5 C7 6 7 6 3.4375 6.0625 C2.303125 6.041875 1.16875 6.02125 0 6 C0 4.02 0 2.04 0 0 Z " fill="#232D35" transform="translate(312,295)"/>
<path d="M0 0 C2.875 -0.125 2.875 -0.125 6 0 C8 2 8 2 8 6 C5.36 6 2.72 6 0 6 C0 4.02 0 2.04 0 0 Z " fill="#262E35" transform="translate(462,302)"/>
<path d="M0 0 C2.64 0 5.28 0 8 0 C8 0.66 8 1.32 8 2 C8.99 1.67 9.98 1.34 11 1 C10.67 1.99 10.34 2.98 10 4 C6.52674819 5.1577506 3.63932552 5.06866652 0 5 C0 3.35 0 1.7 0 0 Z " fill="#09141D" transform="translate(292,297)"/>
<path d="M0 0 C3.36720387 1.39332574 4.9859524 2.9789286 7 6 C6.01 7.485 6.01 7.485 5 9 C4.01 9 3.02 9 2 9 C2 8.34 2 7.68 2 7 C1.34 7 0.68 7 0 7 C-0.12375 6.360625 -0.2475 5.72125 -0.375 5.0625 C-0.684375 4.0415625 -0.684375 4.0415625 -1 3 C-1.66 2.67 -2.32 2.34 -3 2 C-2.01 1.34 -1.02 0.68 0 0 Z " fill="#0A1721" transform="translate(314,77)"/>
<path d="M0 0 C2.31 0.33 4.62 0.66 7 1 C7.33 1.99 7.66 2.98 8 4 C8.66 4.66 9.32 5.32 10 6 C9.34 6 8.68 6 8 6 C8 7.32 8 8.64 8 10 C5.525 9.01 5.525 9.01 3 8 C3 5 3 5 4 2 C2.68 1.34 1.36 0.68 0 0 Z " fill="#03111C" transform="translate(192,377)"/>
<path d="M0 0 C0.33 0 0.66 0 1 0 C1.03738281 1.24136719 1.07476562 2.48273438 1.11328125 3.76171875 C1.1789595 5.40367511 1.2454062 7.04560087 1.3125 8.6875 C1.33505859 9.50412109 1.35761719 10.32074219 1.38085938 11.16210938 C1.5921796 15.90720907 2.02749618 19.08713305 5 23 C3.1875 23.6875 3.1875 23.6875 1 24 C-0.75 22.5625 -0.75 22.5625 -2 21 C-1.505 19.515 -1.505 19.515 -1 18 C-0.85507877 16.59335074 -0.75371069 15.1818867 -0.68359375 13.76953125 C-0.64169922 12.96708984 -0.59980469 12.16464844 -0.55664062 11.33789062 C-0.51732422 10.50451172 -0.47800781 9.67113281 -0.4375 8.8125 C-0.39431641 7.96751953 -0.35113281 7.12253906 -0.30664062 6.25195312 C-0.20068482 4.16815567 -0.0998498 2.08409897 0 0 Z " fill="#2C363F" transform="translate(435,286)"/>
<path d="M0 0 C2.475 0.495 2.475 0.495 5 1 C4.67 1.66 4.34 2.32 4 3 C6.64 3.33 9.28 3.66 12 4 C12 4.66 12 5.32 12 6 C13.98 6 15.96 6 18 6 C18 6.33 18 6.66 18 7 C15.37405216 6.8863485 12.74988453 6.75960946 10.125 6.625 C9.37863281 6.5940625 8.63226563 6.563125 7.86328125 6.53125 C2.2265625 6.2265625 2.2265625 6.2265625 0 4 C0 2.68 0 1.36 0 0 Z " fill="#DA1235" transform="translate(446,232)"/>
<path d="M0 0 C2.31 0 4.62 0 7 0 C7.042721 1.66611905 7.04063832 3.33382885 7 5 C6 6 6 6 2.9375 6.0625 C1.4834375 6.0315625 1.4834375 6.0315625 0 6 C0 4.02 0 2.04 0 0 Z " fill="#141E25" transform="translate(229,293)"/>
<path d="M0 0 C2.31 0 4.62 0 7 0 C7.042721 1.66611905 7.04063832 3.33382885 7 5 C6 6 6 6 2.9375 6.0625 C1.4834375 6.0315625 1.4834375 6.0315625 0 6 C0 4.02 0 2.04 0 0 Z " fill="#222A30" transform="translate(312,286)"/>
<path d="M0 0 C0.33 0.99 0.66 1.98 1 3 C-3.455 5.97 -3.455 5.97 -8 9 C-8.66 8.67 -9.32 8.34 -10 8 C-9.67 6.35 -9.34 4.7 -9 3 C-6.03 2.01 -3.06 1.02 0 0 Z " fill="#151F27" transform="translate(524,345)"/>
<path d="M0 0 C2.97 0 5.94 0 9 0 C8.34 0.433125 7.68 0.86625 7 1.3125 C6.34 1.869375 5.68 2.42625 5 3 C5 3.99 5 4.98 5 6 C5.99 6.33 6.98 6.66 8 7 C1.25 6.125 1.25 6.125 -1 5 C-0.67 3.35 -0.34 1.7 0 0 Z " fill="#283239" transform="translate(273,288)"/>
<path d="M0 0 C-3.00166801 2.61289776 -4.79627311 3.36930244 -8.765625 3.29296875 C-9.65507812 3.28330078 -10.54453125 3.27363281 -11.4609375 3.26367188 C-12.38132812 3.23853516 -13.30171875 3.21339844 -14.25 3.1875 C-15.18585938 3.17396484 -16.12171875 3.16042969 -17.0859375 3.14648438 C-19.39121327 3.11119954 -21.6953106 3.06190281 -24 3 C-24 2.67 -24 2.34 -24 2 C-21.31306278 1.66148822 -18.62559711 1.329064 -15.9375 1 C-14.80924805 0.85691406 -14.80924805 0.85691406 -13.65820312 0.7109375 C-9.06578683 0.15428098 -4.6257865 -0.09829028 0 0 Z M-10 4 C-8 5 -8 5 -8 5 Z " fill="#333D45" transform="translate(276,256)"/>
<path d="M0 0 C1.20272819 2.40545638 1.10071472 3.94996953 1.0625 6.625 C1.05347656 7.44226563 1.04445313 8.25953125 1.03515625 9.1015625 C1.02355469 9.72804688 1.01195312 10.35453125 1 11 C0.67 11 0.34 11 0 11 C-0.66 8.69 -1.32 6.38 -2 4 C-6.29 3.67 -10.58 3.34 -15 3 C-15 2.67 -15 2.34 -15 2 C-13.06302033 1.66365624 -11.12539514 1.33102835 -9.1875 1 C-7.56908203 0.7215625 -7.56908203 0.7215625 -5.91796875 0.4375 C-3 0 -3 0 0 0 Z " fill="#50575E" transform="translate(323,280)"/>
<path d="M0 0 C0.99 0.33 1.98 0.66 3 1 C2.34 1 1.68 1 1 1 C1 1.66 1 2.32 1 3 C0.34 3 -0.32 3 -1 3 C-1 3.66 -1 4.32 -1 5 C-0.34 5.33 0.32 5.66 1 6 C-4.81266619 5.21450457 -10.36877624 3.59317541 -16 2 C-16 1.67 -16 1.34 -16 1 C-15.01257813 1.09539062 -14.02515625 1.19078125 -13.0078125 1.2890625 C-11.72648438 1.39992188 -10.44515625 1.51078125 -9.125 1.625 C-7.84882812 1.74101562 -6.57265625 1.85703125 -5.2578125 1.9765625 C-4.18273437 1.98429687 -3.10765625 1.99203125 -2 2 C-1.34 1.34 -0.68 0.68 0 0 Z " fill="#D61F40" transform="translate(619,265)"/>
<path d="M0 0 C2.1385485 2.1385485 2.42655063 3.13275314 3 6 C0.41536498 5.71749338 -2.16731135 5.4243774 -4.75 5.125 C-5.84441406 5.00705078 -5.84441406 5.00705078 -6.9609375 4.88671875 C-10.66777257 4.44863824 -13.80452172 4.0013785 -17 2 C-11.21101581 1.79325056 -6.57067277 2.40837921 -1 4 C-0.67 2.68 -0.34 1.36 0 0 Z " fill="#D0314E" transform="translate(541,246)"/>
<path d="M0 0 C0 0.33 0 0.66 0 1 C-8.04924606 3.25943749 -15.70316995 3.19676277 -24 3 C-24 2.67 -24 2.34 -24 2 C-15.92437827 0.56205146 -8.2056037 -0.29599372 0 0 Z " fill="#D71439" transform="translate(153,151)"/>
<path d="M0 0 C0.66 0.33 1.32 0.66 2 1 C2 2.65 2 4.3 2 6 C-1.3 6 -4.6 6 -8 6 C-5.36435544 3.36435544 -3.27929831 1.68169144 0 0 Z " fill="#1D252C" transform="translate(309,80)"/>
<path d="M0 0 C2.97 0.495 2.97 0.495 6 1 C6 2.65 6 4.3 6 6 C4.02 6 2.04 6 0 6 C0 4.02 0 2.04 0 0 Z " fill="#1A222A" transform="translate(463,293)"/>
<path d="M0 0 C3.35433109 0.94933899 6.69246505 1.89748835 10 3 C10 3.66 10 4.32 10 5 C10.99 5.33 11.98 5.66 13 6 C13 6.66 13 7.32 13 8 C8.77096401 6.69101267 4.83550432 5.22994437 1 3 C0.67 2.01 0.34 1.02 0 0 Z " fill="#273038" transform="translate(231,376)"/>
<path d="M0 0 C0.66 0.66 1.32 1.32 2 2 C1.67 2.99 1.34 3.98 1 5 C2.32 5.33 3.64 5.66 5 6 C1.08428299 7.305239 -0.03892997 6.32239848 -3.6875 4.5625 C-4.68136719 4.08941406 -5.67523438 3.61632812 -6.69921875 3.12890625 C-7.45847656 2.75636719 -8.21773438 2.38382812 -9 2 C-9 1.67 -9 1.34 -9 1 C-7.700625 1.020625 -6.40125 1.04125 -5.0625 1.0625 C-3.70834367 1.08399454 -2.35243917 1.07148199 -1 1 C-0.67 0.67 -0.34 0.34 0 0 Z " fill="#18232C" transform="translate(292,403)"/>
<path d="M0 0 C-0.33 1.65 -0.66 3.3 -1 5 C-4.3 5.66 -7.6 6.32 -11 7 C-4.48275862 0 -4.48275862 0 0 0 Z " fill="#19232B" transform="translate(400,70)"/>
<path d="M0 0 C1.60294922 0.16628906 1.60294922 0.16628906 3.23828125 0.3359375 C4.04652344 0.43132812 4.85476562 0.52671875 5.6875 0.625 C2.15563168 2.77559309 -0.97537993 3.0047728 -5.0625 3.25 C-6.23296875 3.32476562 -7.4034375 3.39953125 -8.609375 3.4765625 C-9.50140625 3.52554687 -10.3934375 3.57453125 -11.3125 3.625 C-11.3125 2.965 -11.3125 2.305 -11.3125 1.625 C-7.26770612 -0.34111502 -4.44364252 -0.48831236 0 0 Z " fill="#DE0F35" transform="translate(106.3125,260.375)"/>
<path d="M0 0 C-4.75 3 -4.75 3 -7 3 C-6.67 4.65 -6.34 6.3 -6 8 C-6.99 7.34 -7.98 6.68 -9 6 C-9.99 5.67 -10.98 5.34 -12 5 C-10.68 4.34 -9.36 3.68 -8 3 C-8 2.01 -8 1.02 -8 0 C-4.71303767 -0.79953138 -3.28976808 -1.09658936 0 0 Z " fill="#DC2144" transform="translate(533,203)"/>
<path d="M0 0 C0 0.99 0 1.98 0 3 C-2.1875 4.75 -2.1875 4.75 -5 6 C-7.8125 5.6875 -7.8125 5.6875 -10 5 C-6.75728676 1.53365137 -4.90610505 0 0 0 Z " fill="#252F37" transform="translate(404,433)"/>
<path d="M0 0 C1.32 0 2.64 0 4 0 C2.82255415 3.53233755 2.04394359 3.86308075 -1.0625 5.6875 C-1.79597656 6.12449219 -2.52945312 6.56148438 -3.28515625 7.01171875 C-3.85105469 7.33785156 -4.41695313 7.66398437 -5 8 C-5 7.34 -5 6.68 -5 6 C-5.66 5.67 -6.32 5.34 -7 5 C-5.5459375 4.5978125 -5.5459375 4.5978125 -4.0625 4.1875 C-3.051875 3.795625 -2.04125 3.40375 -1 3 C-0.67 2.01 -0.34 1.02 0 0 Z " fill="#121C25" transform="translate(449,426)"/>
<path d="M0 0 C0.66 0.33 1.32 0.66 2 1 C1.67 2.32 1.34 3.64 1 5 C1.99 5 2.98 5 4 5 C4.66 6.65 5.32 8.3 6 10 C2.56247993 8.4722133 -0.18953688 6.49818944 -3 4 C-3 3.34 -3 2.68 -3 2 C-2.01 1.34 -1.02 0.68 0 0 Z " fill="#1E252D" transform="translate(329,68)"/>
<path d="M0 0 C0.99 0.33 1.98 0.66 3 1 C1.02 5.455 1.02 5.455 -1 10 C-3 8 -3 8 -3.3125 5 C-3.209375 4.01 -3.10625 3.02 -3 2 C-2.01 1.34 -1.02 0.68 0 0 Z " fill="#182129" transform="translate(446,67)"/>
<path d="M0 0 C0 0.66 0 1.32 0 2 C-4.95 4.475 -4.95 4.475 -10 7 C-10.33 6.34 -10.66 5.68 -11 5 C-7.62661234 1.12685121 -5.10143816 0 0 0 Z " fill="#131C24" transform="translate(419,401)"/>
<path d="M0 0 C2.76223278 2.76223278 2.57856291 5.20706617 3 9 C1.35 9 -0.3 9 -2 9 C-1.34 6.03 -0.68 3.06 0 0 Z " fill="#42474B" transform="translate(254,292)"/>
<path d="M0 0 C0.226875 0.639375 0.45375 1.27875 0.6875 1.9375 C1.85250896 4.27193661 1.85250896 4.27193661 4.625 4.75 C5.40875 4.8325 6.1925 4.915 7 5 C7.33 5.99 7.66 6.98 8 8 C0.62702703 5.65405405 0.62702703 5.65405405 -2 4 C-2.33 3.01 -2.66 2.02 -3 1 C-2.01 0.67 -1.02 0.34 0 0 Z " fill="#182129" transform="translate(254,385)"/>
<path d="M0 0 C1 2 1 2 0.4375 4.3125 C-1.47539467 7.88878134 -3.78248866 9.55189355 -7 12 C-7 8.19654123 -5.86213669 7.22298985 -3.5 4.3125 C-2.8503125 3.50425781 -2.200625 2.69601563 -1.53125 1.86328125 C-1.0259375 1.24839844 -0.520625 0.63351563 0 0 Z " fill="#FDD2DE" transform="translate(661,136)"/>
<path d="M0 0 C0.66 0.33 1.32 0.66 2 1 C0.9375 3.5 0.9375 3.5 -1 6 C-4.6875 6.3125 -4.6875 6.3125 -8 6 C-5.63404067 3.38499232 -3.13950774 1.61000397 0 0 Z " fill="#1F2830" transform="translate(417,81)"/>
<path d="M0 0 C2.31 0 4.62 0 7 0 C7 0.99 7 1.98 7 3 C7.66 3 8.32 3 9 3 C9 3.99 9 4.98 9 6 C5.9168649 4.80100302 2.93720508 3.52299523 0 2 C0 1.34 0 0.68 0 0 Z " fill="#1A232B" transform="translate(188,354)"/>
<path d="M0 0 C1.64826111 2.96687001 2.44271087 5.65626525 3 9 C2.67 9 2.34 9 2 9 C1.67 11.31 1.34 13.62 1 16 C0.01 16 -0.98 16 -2 16 C-1.67 15.67 -1.34 15.34 -1 15 C-0.953107 13.41736123 -0.96253515 11.83289002 -1 10.25 C-1.04088324 6.68293772 -0.92566551 3.47124567 0 0 Z " fill="#252F37" transform="translate(474,295)"/>
<path d="M0 0 C1.65 0 3.3 0 5 0 C5 0.99 5 1.98 5 3 C4.01 3.33 3.02 3.66 2 4 C0.33289654 5.49985609 0.33289654 5.49985609 -1 7 C-2.32 6.34 -3.64 5.68 -5 5 C-3.68 5 -2.36 5 -1 5 C-0.67 3.35 -0.34 1.7 0 0 Z " fill="#29323A" transform="translate(333,299)"/>
<path d="M0 0 C8.5 1 8.5 1 12 3 C12.66 4.65 13.32 6.3 14 8 C9.38 5.69 4.76 3.38 0 1 C0 0.67 0 0.34 0 0 Z " fill="#D52A4A" transform="translate(596,201)"/>
<path d="M0 0 C0.66 0.33 1.32 0.66 2 1 C1.40844669 2.31823302 0.80128537 3.62947051 0.1875 4.9375 C-0.31716797 6.03384766 -0.31716797 6.03384766 -0.83203125 7.15234375 C-2 9 -2 9 -5 10 C-4.56802365 5.2482602 -3.67230705 3.07999946 0 0 Z " fill="#111A23" transform="translate(438,87)"/>
<path d="M0 0 C1.3348155 0.32734761 2.66771114 0.66251623 4 1 C6.24707241 1.2198223 8.49771238 1.40483987 10.75 1.5625 C11.92046875 1.64628906 13.0909375 1.73007812 14.296875 1.81640625 C15.18890625 1.87699219 16.0809375 1.93757813 17 2 C17 2.33 17 2.66 17 3 C16.09636719 3.06058594 15.19273437 3.12117188 14.26171875 3.18359375 C13.08222656 3.26738281 11.90273438 3.35117187 10.6875 3.4375 C9.51574219 3.51871094 8.34398437 3.59992187 7.13671875 3.68359375 C3.97409042 3.8867371 3.97409042 3.8867371 1 5 C0.34 3.68 -0.32 2.36 -1 1 C-0.67 0.67 -0.34 0.34 0 0 Z " fill="#222E37" transform="translate(403,52)"/>
<path d="M0 0 C0.33 0 0.66 0 1 0 C1.08112454 2.58396679 1.14054748 5.16537568 1.1875 7.75 C1.21263672 8.47960937 1.23777344 9.20921875 1.26367188 9.9609375 C1.30981636 13.34486604 1.25324128 15.57858557 -0.51171875 18.515625 C-1.00285156 19.00546875 -1.49398437 19.4953125 -2 20 C-2 18.02 -2 16.04 -2 14 C-1.34 14 -0.68 14 0 14 C0 9.38 0 4.76 0 0 Z " fill="#D41538" transform="translate(641,248)"/>
<path d="M0 0 C-2.39509338 2.89932357 -4.31245243 3.50168276 -8 4 C-8.66 2.68 -9.32 1.36 -10 0 C-6.30458414 -0.95024979 -3.69541586 -0.95024979 0 0 Z " fill="#192229" transform="translate(403,410)"/>
<path d="M0 0 C-2.52956528 3.0916909 -5.22454612 3.90931332 -9 5 C-8.67 4.01 -8.34 3.02 -8 2 C-7.34 2 -6.68 2 -6 2 C-6 1.34 -6 0.68 -6 0 C-3.50907189 -1.24546405 -2.58919267 -0.7767578 0 0 Z " fill="#101A24" transform="translate(506,357)"/>
<path d="M0 0 C0.66 1.32 1.32 2.64 2 4 C2.99 3.67 3.98 3.34 5 3 C4.67 4.65 4.34 6.3 4 8 C5.32 8.33 6.64 8.66 8 9 C6.35 9 4.7 9 3 9 C2.67 8.34 2.34 7.68 2 7 C1.01 7 0.02 7 -1 7 C-0.67 4.69 -0.34 2.38 0 0 Z " fill="#2B353D" transform="translate(241,302)"/>
<path d="M0 0 C0 0.66 0 1.32 0 2 C-1.75 3.2890625 -1.75 3.2890625 -4 4.625 C-4.7425 5.07101562 -5.485 5.51703125 -6.25 5.9765625 C-6.8275 6.31429688 -7.405 6.65203125 -8 7 C-8.33 6.34 -8.66 5.68 -9 5 C-6.54789272 1.19923372 -6.54789272 1.19923372 -3.9375 0.25 C-2 0 -2 0 0 0 Z " fill="#121C25" transform="translate(410,457)"/>
<path d="M0 0 C1.32 1.32 2.64 2.64 4 4 C3.34 5.32 2.68 6.64 2 8 C0.68 7.34 -0.64 6.68 -2 6 C-1.49396008 3.83125748 -1.00016187 2.00032373 0 0 Z " fill="#1A262F" transform="translate(326,294)"/>
<path d="M0 0 C0.99 0 1.98 0 3 0 C3.33 0.66 3.66 1.32 4 2 C3.67 2.99 3.34 3.98 3 5 C3.66 5.33 4.32 5.66 5 6 C4.34 6 3.68 6 3 6 C2.67 6.66 2.34 7.32 2 8 C1.01 8.495 1.01 8.495 0 9 C0 6.03 0 3.06 0 0 Z " fill="#101B23" transform="translate(402,290)"/>
<path d="M0 0 C2.16874252 0.50603992 3.99967627 0.99983813 6 2 C6 2.66 6 3.32 6 4 C7.65 4.33 9.3 4.66 11 5 C11 5.66 11 6.32 11 7 C6.00724943 5.72278474 3.42388092 3.82669043 0 0 Z " fill="#D22647" transform="translate(561,251)"/>
<path d="M0 0 C0.94875 0.350625 1.8975 0.70125 2.875 1.0625 C2.545 2.3825 2.215 3.7025 1.875 5.0625 C-1.00937779 3.76950306 -2.99719421 2.40308637 -5.125 0.0625 C-3.125 -0.9375 -3.125 -0.9375 0 0 Z " fill="#283138" transform="translate(214.125,400.9375)"/>
<path d="M0 0 C0.66 1.32 1.32 2.64 2 4 C2.99 3.01 3.98 2.02 5 1 C5 4.69418201 3.71820705 6.77836178 2 10 C-0.4294516 6.3558226 -0.16179575 4.28758728 0 0 Z " fill="#061119" transform="translate(174,366)"/>
<path d="M0 0 C-1.4638611 4.39158329 -3.97831338 4.87947433 -8 7 C-8.66 6.34 -9.32 5.68 -10 5 C-9.34 5 -8.68 5 -8 5 C-7.67 4.34 -7.34 3.68 -7 3 C-2.5 0 -2.5 0 0 0 Z " fill="#1C252D" transform="translate(497,395)"/>
<path d="M0 0 C0.99 0.66 1.98 1.32 3 2 C3 4 3 6 3 8 C1.0625 7.3125 1.0625 7.3125 -1 6 C-1.75 3.375 -1.75 3.375 -2 1 C-1.34 0.67 -0.68 0.34 0 0 Z " fill="#03111B" transform="translate(477,391)"/>
<path d="M0 0 C1.65 0 3.3 0 5 0 C5 0.66 5 1.32 5 2 C6.32 2.66 7.64 3.32 9 4 C8.67 4.66 8.34 5.32 8 6 C4.63408134 4.55746343 2.48952921 2.66735273 0 0 Z " fill="#222B33" transform="translate(194,390)"/>
<path d="M0 0 C0.66 0.66 1.32 1.32 2 2 C-2.95 4.475 -2.95 4.475 -8 7 C-8 6.34 -8 5.68 -8 5 C-7.34 5 -6.68 5 -6 5 C-5.67 3.68 -5.34 2.36 -5 1 C-3.35 1.33 -1.7 1.66 0 2 C0 1.34 0 0.68 0 0 Z " fill="#1E2831" transform="translate(495,361)"/>
<path d="M0 0 C0.66 0 1.32 0 2 0 C2.36402369 1.43503555 2.71586591 2.87316506 3.0625 4.3125 C3.25972656 5.11300781 3.45695312 5.91351563 3.66015625 6.73828125 C4 9 4 9 3 12 C1.68 11.34 0.36 10.68 -1 10 C-0.34 9.01 0.32 8.02 1 7 C0.68269476 3.36060068 0.68269476 3.36060068 0 0 Z " fill="#2A343B" transform="translate(281,295)"/>
<path d="M0 0 C0.66 0.33 1.32 0.66 2 1 C2.33 1.99 2.66 2.98 3 4 C3.66 4.33 4.32 4.66 5 5 C2.03 5 -0.94 5 -4 5 C-3.34 4.67 -2.68 4.34 -2 4 C-1.67 3.01 -1.34 2.02 -1 1 C-0.67 0.67 -0.34 0.34 0 0 Z " fill="#0F1A25" transform="translate(408,297)"/>
<path d="M0 0 C2.35953094 2.35953094 2.49141413 3.77895617 3 7 C3.99 7 4.98 7 6 7 C6.33 8.32 6.66 9.64 7 11 C3.17131081 9.54773858 1.7461047 7.66681987 0 4 C0 2.68 0 1.36 0 0 Z " fill="#C91E3B" transform="translate(229,224)"/>
<path d="M0 0 C-2.57089417 2.11180592 -4.63060567 3.66306057 -8 4 C-8.66 3.34 -9.32 2.68 -10 2 C-6.3558226 -0.4294516 -4.28758728 -0.16179575 0 0 Z " fill="#161E26" transform="translate(435,394)"/>
<path d="M0 0 C3.465 1.485 3.465 1.485 7 3 C7 3.66 7 4.32 7 5 C7.66 5.33 8.32 5.66 9 6 C5.65626525 5.44271087 2.96687001 4.64826111 0 3 C0 2.01 0 1.02 0 0 Z " fill="#2C333A" transform="translate(211,384)"/>
<path d="M0 0 C2.31 0.66 4.62 1.32 7 2 C7.33 3.32 7.66 4.64 8 6 C4.5625 4.6875 4.5625 4.6875 1 3 C0.67 2.01 0.34 1.02 0 0 Z " fill="#232C34" transform="translate(218,369)"/>
<path d="M0 0 C0.33 1.32 0.66 2.64 1 4 C1.66 4 2.32 4 3 4 C3 4.66 3 5.32 3 6 C1.35 6 -0.3 6 -2 6 C-2.66 4.68 -3.32 3.36 -4 2 C-3.01 2 -2.02 2 -1 2 C-0.67 1.34 -0.34 0.68 0 0 Z " fill="#2B343B" transform="translate(444,300)"/>
<path d="M0 0 C0.66 0.33 1.32 0.66 2 1 C2.625 4.0625 2.625 4.0625 3 7 C1.68 7 0.36 7 -1 7 C-0.67 4.69 -0.34 2.38 0 0 Z " fill="#222A30" transform="translate(337,288)"/>
<path d="M0 0 C0.33 0.66 0.66 1.32 1 2 C1.99 2.33 2.98 2.66 4 3 C4.33 3.99 4.66 4.98 5 6 C1.08788267 4.84414715 -1.8745041 3.64465038 -5 1 C-2 0 -2 0 0 0 Z " fill="#D3304E" transform="translate(567,185)"/>
<path d="M0 0 C0.66 0.66 1.32 1.32 2 2 C-0.31 3.65 -2.62 5.3 -5 7 C-5.33 6.01 -5.66 5.02 -6 4 C-4.68 3.67 -3.36 3.34 -2 3 C-2 2.34 -2 1.68 -2 1 C-1.34 0.67 -0.68 0.34 0 0 Z " fill="#18222A" transform="translate(395,466)"/>
<path d="M0 0 C2.31 0.33 4.62 0.66 7 1 C7.33 2.65 7.66 4.3 8 6 C6.66402348 5.19185349 5.331275 4.37836819 4 3.5625 C3.2575 3.11003906 2.515 2.65757812 1.75 2.19140625 C1.1725 1.79824219 0.595 1.40507812 0 1 C0 0.67 0 0.34 0 0 Z " fill="#252D34" transform="translate(279,451)"/>
<path d="M0 0 C1.98 0.99 3.96 1.98 6 3 C3 5 3 5 -1 5 C-0.67 3.35 -0.34 1.7 0 0 Z " fill="#17222A" transform="translate(237,399)"/>
<path d="M0 0 C0.99 0.33 1.98 0.66 3 1 C3 1.66 3 2.32 3 3 C3.99 3.33 4.98 3.66 6 4 C6 4.66 6 5.32 6 6 C0.25 4.25 0.25 4.25 -2 2 C-1.34 2 -0.68 2 0 2 C0 1.34 0 0.68 0 0 Z " fill="#28333B" transform="translate(269,394)"/>
<path d="M0 0 C1.32 0.66 2.64 1.32 4 2 C-0.75 6 -0.75 6 -3 6 C-1.125 1.125 -1.125 1.125 0 0 Z " fill="#1B252E" transform="translate(508,384)"/>
<path d="M0 0 C1.98 0.66 3.96 1.32 6 2 C5.67 2.66 5.34 3.32 5 4 C4.34 4 3.68 4 3 4 C2.67 4.99 2.34 5.98 2 7 C1.67 7 1.34 7 1 7 C0.67 4.69 0.34 2.38 0 0 Z " fill="#111A22" transform="translate(174,364)"/>
<path d="M0 0 C0.99 0.99 1.98 1.98 3 3 C-0.75 6 -0.75 6 -3 6 C-2.625 3.5625 -2.625 3.5625 -2 1 C-1.34 0.67 -0.68 0.34 0 0 Z " fill="#131E28" transform="translate(483,365)"/>
<path d="M0 0 C2.64 0.33 5.28 0.66 8 1 C8.33 2.32 8.66 3.64 9 5 C6.03 4.01 3.06 3.02 0 2 C0 1.34 0 0.68 0 0 Z " fill="#252C33" transform="translate(270,297)"/>
<path d="M0 0 C5.75 1.75 5.75 1.75 8 4 C5.03 4 2.06 4 -1 4 C-0.67 2.68 -0.34 1.36 0 0 Z " fill="#D9183C" transform="translate(614,186)"/>
<path d="M0 0 C1 2 1 2 0.375 4.5 C-1 7 -1 7 -3.625 8.3125 C-4.40875 8.539375 -5.1925 8.76625 -6 9 C-4.47291037 5.56404834 -2.40072955 2.88087546 0 0 Z " fill="#FECFDB" transform="translate(652,148)"/>
<path d="M0 0 C0.33 0.66 0.66 1.32 1 2 C1.66 2 2.32 2 3 2 C3.33 3.98 3.66 5.96 4 8 C3.01 8 2.02 8 1 8 C0.26919734 6.02253397 -0.39421747 4.01927511 -1 2 C-0.67 1.34 -0.34 0.68 0 0 Z " fill="#0E1A23" transform="translate(251,64)"/>
<path d="M0 0 C2.91517292 1.07401108 4.77810176 1.77810176 7 4 C6.67 4.66 6.34 5.32 6 6 C3.37812506 4.95125002 2.20628639 4.35068687 0.75 1.875 C0.5025 1.25625 0.255 0.6375 0 0 Z " fill="#182129" transform="translate(310,441)"/>
<path d="M0 0 C2.375 0.3125 2.375 0.3125 5 1 C5.66 1.99 6.32 2.98 7 4 C5.35 4.33 3.7 4.66 2 5 C2 4.01 2 3.02 2 2 C1.34 1.34 0.68 0.68 0 0 Z " fill="#1F2A32" transform="translate(298,409)"/>
<path d="M0 0 C2.02045442 0.60183749 4.02111039 1.27306096 6 2 C6.33 2.66 6.66 3.32 7 4 C4.69 4 2.38 4 0 4 C-0.33 3.34 -0.66 2.68 -1 2 C-0.67 1.34 -0.34 0.68 0 0 Z " fill="#232C35" transform="translate(180,367)"/>
<path d="M0 0 C1.20628008 2.33214148 2.1654738 4.49642139 3 7 C2.01 8.485 2.01 8.485 1 10 C-1.56687367 6.1496895 -0.83288724 4.41430237 0 0 Z " fill="#0D171F" transform="translate(324,287)"/>
<path d="M0 0 C3.63 0 7.26 0 11 0 C11 0.33 11 0.66 11 1 C8.69 1 6.38 1 4 1 C3.67 1.99 3.34 2.98 3 4 C2.01 3.34 1.02 2.68 0 2 C0 1.34 0 0.68 0 0 Z " fill="#E00E31" transform="translate(544,133)"/>
<path d="M0 0 C1.98 0.495 1.98 0.495 4 1 C4 1.99 4 2.98 4 4 C4.99 4.33 5.98 4.66 7 5 C6.01 5.495 6.01 5.495 5 6 C3.02 4.68 1.04 3.36 -1 2 C-0.67 1.34 -0.34 0.68 0 0 Z " fill="#1F2932" transform="translate(273,445)"/>
<path d="M0 0 C-2.35953094 2.35953094 -3.77895617 2.49141413 -7 3 C-7.33 2.01 -7.66 1.02 -8 0 C-5.13822943 -1.43088528 -3.06624227 -0.59991697 0 0 Z " fill="#28323C" transform="translate(514,354)"/>
<path d="M0 0 C0.99 0.33 1.98 0.66 3 1 C3.33 2.65 3.66 4.3 4 6 C2.68 6 1.36 6 0 6 C0 4.02 0 2.04 0 0 Z " fill="#323B41" transform="translate(229,303)"/>
<path d="M0 0 C2.475 0.495 2.475 0.495 5 1 C5 2.98 5 4.96 5 7 C3.29115995 5.37660195 1.62553283 3.70680947 0 2 C0 1.34 0 0.68 0 0 Z " fill="#D5183B" transform="translate(41,140)"/>
<path d="M0 0 C2.375 0.625 2.375 0.625 5 2 C6.3125 5.125 6.3125 5.125 7 8 C6.01 8.495 6.01 8.495 5 9 C4.54625 8.071875 4.0925 7.14375 3.625 6.1875 C2.0578367 2.96078611 2.0578367 2.96078611 0 0 Z " fill="#CF1A39" transform="translate(223,135)"/>
<path d="M0 0 C2.375 0.1875 2.375 0.1875 5 1 C6.3125 3.5625 6.3125 3.5625 7 6 C6.01 6.495 6.01 6.495 5 7 C3.35 4.69 1.7 2.38 0 0 Z " fill="#FED5DC" transform="translate(531,136)"/>
<path d="M0 0 C3.42353587 1.21480305 5.01180815 3.01771223 7 6 C5.68 6 4.36 6 3 6 C2.67 5.01 2.34 4.02 2 3 C-0.00016466 1.79117904 -0.00016466 1.79117904 -2 1 C-1.34 0.67 -0.68 0.34 0 0 Z " fill="#232C34" transform="translate(314,77)"/>
<path d="M0 0 C2.91517292 1.07401108 4.77810176 1.77810176 7 4 C5.35 4.33 3.7 4.66 2 5 C1.34 3.35 0.68 1.7 0 0 Z " fill="#1C242B" transform="translate(326,450)"/>
<path d="M0 0 C2 1 2 1 3 3 C1.1875 4.5625 1.1875 4.5625 -1 6 C-1.99 5.67 -2.98 5.34 -4 5 C-3.34 4.67 -2.68 4.34 -2 4 C-2.33 3.34 -2.66 2.68 -3 2 C-2.01 1.34 -1.02 0.68 0 0 Z " fill="#1D2730" transform="translate(441,410)"/>
<path d="M0 0 C2 1 2 1 4 4 C1.03 4 -1.94 4 -5 4 C-3.35 2.68 -1.7 1.36 0 0 Z " fill="#262F35" transform="translate(499,377)"/>
<path d="M0 0 C0.99 0.66 1.98 1.32 3 2 C2.67 3.32 2.34 4.64 2 6 C0.68 5.67 -0.64 5.34 -2 5 C-2 4.01 -2 3.02 -2 2 C-1.34 2 -0.68 2 0 2 C0 1.34 0 0.68 0 0 Z " fill="#1B272F" transform="translate(245,298)"/>
<path d="M0 0 C0.99 0.33 1.98 0.66 3 1 C3 1.99 3 2.98 3 4 C3.99 4.66 4.98 5.32 6 6 C4.02 6 2.04 6 0 6 C0 4.02 0 2.04 0 0 Z " fill="#3B434A" transform="translate(229,293)"/>
<path d="M0 0 C0.66 0.33 1.32 0.66 2 1 C1.34 2.65 0.68 4.3 0 6 C-0.99 6 -1.98 6 -3 6 C-2.625 3.5625 -2.625 3.5625 -2 1 C-1.34 0.67 -0.68 0.34 0 0 Z " fill="#151F2B" transform="translate(268,283)"/>
<path d="M0 0 C0.33 1.32 0.66 2.64 1 4 C-1.91482778 4.80967438 -3.46113217 5.21845993 -6.3125 4.0625 C-6.869375 3.711875 -7.42625 3.36125 -8 3 C-6.865625 2.87625 -5.73125 2.7525 -4.5625 2.625 C-3.386875 2.41875 -2.21125 2.2125 -1 2 C-0.67 1.34 -0.34 0.68 0 0 Z " fill="#F8B5C3" transform="translate(608,239)"/>
<path d="M0 0 C0.6875 2.0625 0.6875 2.0625 1 4 C0.01 4.495 0.01 4.495 -1 5 C-2.66666667 3.33333333 -4.33333333 1.66666667 -6 0 C-3 -1 -3 -1 0 0 Z " fill="#D91D3E" transform="translate(440,134)"/>
<path d="M0 0 C0.66 0 1.32 0 2 0 C2 0.66 2 1.32 2 2 C2.99 2.33 3.98 2.66 5 3 C5 3.66 5 4.32 5 5 C3.02 5.99 3.02 5.99 1 7 C-0.231394 4.53721199 -0.07159196 2.7204945 0 0 Z " fill="#141F28" transform="translate(379,66)"/>
</svg>
