<?xml version="1.0" encoding="UTF-8"?>
<svg version="1.1" xmlns="http://www.w3.org/2000/svg" width="600" height="600">
<path d="M0 0 C0.78028564 -0.00067474 1.56057129 -0.00134949 2.36450195 -0.00204468 C14.53226279 0.01465213 26.27805644 0.55184824 38.1875 3.25 C38.97962891 3.42692383 39.77175781 3.60384766 40.58789062 3.78613281 C66.6376319 9.77612495 90.94609686 20.94845806 112.1875 37.25 C113.425 38.178125 113.425 38.178125 114.6875 39.125 C127.44278838 49.08034703 139.73134395 61.09073389 149.1875 74.25 C147.79366105 78.55822947 146.08801593 82.74318865 142.1875 85.25 C137.89596264 85.99257548 133.71359817 85.8145858 129.375 85.625 C128.20517578 85.59792969 127.03535156 85.57085937 125.83007812 85.54296875 C122.94733865 85.47237105 120.06836429 85.37380574 117.1875 85.25 C117.49429687 84.64671875 117.80109375 84.0434375 118.1171875 83.421875 C119.27362063 81.07524427 120.239634 78.6873697 121.1875 76.25 C118.89005665 73.55050406 116.551274 70.89159715 114.1875 68.25 C113.63191406 67.62609375 113.07632812 67.0021875 112.50390625 66.359375 C85.61623617 37.8548517 44.18203614 22.35517564 5.54296875 21.06640625 C-39.75308957 20.13934816 -81.00554433 37.33617419 -113.8125 68.25 C-116.27830563 70.82284221 -118.61678796 73.44345077 -120.8125 76.25 C-120.35875 76.9925 -119.905 77.735 -119.4375 78.5 C-118.12505428 80.72106199 -116.94882841 82.93781872 -115.8125 85.25 C-120.01964438 85.51221814 -124.22468891 85.67147604 -128.4375 85.8125 C-130.22220703 85.92561523 -130.22220703 85.92561523 -132.04296875 86.04101562 C-140.6029429 86.25621051 -140.6029429 86.25621051 -144.05761719 83.38232422 C-145.81720595 80.96727112 -147.04443989 79.14341287 -147.8125 76.25 C-146.62770653 72.08035707 -144.57077877 69.57594588 -141.625 66.4375 C-138.86402821 63.46650183 -136.15801247 60.49091598 -133.5625 57.375 C-106.22152828 26.20880059 -66.25812367 7.57679015 -25.8125 1.25 C-24.83204712 1.0953125 -24.83204712 1.0953125 -23.83178711 0.9375 C-15.94134205 -0.11870873 -7.94665493 0.00617236 0 0 Z " fill="#231815" transform="translate(300.8125,175.75)"/>
<path d="M0 0 C61.05 0 122.1 0 185 0 C182.58253169 3.62620246 180.39775294 6.87183807 177.65234375 10.1640625 C177.04712891 10.89367187 176.44191406 11.62328125 175.81835938 12.375 C175.19767578 13.1175 174.57699219 13.86 173.9375 14.625 C172.69583343 16.11653755 171.45492201 17.60870415 170.21484375 19.1015625 C169.66948975 19.75463379 169.12413574 20.40770508 168.56225586 21.08056641 C166.93965194 22.98024428 166.93965194 22.98024428 165.67285156 25.21923828 C164 27 164 27 161.27270508 27.45410156 C160.19915771 27.4331543 159.12561035 27.41220703 158.01953125 27.390625 C156.85615234 27.37773437 155.69277344 27.36484375 154.49414062 27.3515625 C153.27919922 27.31804687 152.06425781 27.28453125 150.8125 27.25 C148.97268555 27.22292969 148.97268555 27.22292969 147.09570312 27.1953125 C144.06302241 27.14811124 141.03189913 27.08227677 138 27 C137.71656738 27.59498291 137.43313477 28.18996582 137.14111328 28.80297852 C135.42276115 32.11137621 133.12654929 34.98036731 130.875 37.9375 C130.35147949 38.63061279 129.82795898 39.32372559 129.28857422 40.0378418 C126.25158836 44.0528625 123.19646576 48.05400887 120.140625 52.0546875 C119.48231689 52.91682861 118.82400879 53.77896973 118.14575195 54.66723633 C116.79644194 56.43354948 115.4460147 58.19900972 114.09448242 59.96362305 C110.6685711 64.4486541 107.28506763 68.95769038 103.97265625 73.52734375 C103.33505371 74.40543701 102.69745117 75.28353027 102.04052734 76.18823242 C100.82981297 77.86201713 99.62541687 79.54039527 98.42822266 81.22387695 C97.88858887 81.96984131 97.34895508 82.71580566 96.79296875 83.484375 C96.3239917 84.14147461 95.85501465 84.79857422 95.37182617 85.47558594 C94 87 94 87 91 88 C90.6596875 87.53440674 90.319375 87.06881348 89.96875 86.58911133 C82.41821293 76.27113173 74.77052863 66.03665799 66.99780273 55.88500977 C61.66641995 48.90849972 56.43653518 41.86154539 51.25195312 34.77539062 C50.70603516 34.02966797 50.16011719 33.28394531 49.59765625 32.515625 C49.11820557 31.85852539 48.63875488 31.20142578 48.14477539 30.52441406 C47.08313378 29.03619618 47.08313378 29.03619618 46 28 C44.25000436 27.97623928 42.49915406 28.0110725 40.75 28.0703125 C23.13164696 28.32938659 23.13164696 28.32938659 17.76171875 24.98046875 C15.53208364 22.11259534 13.81292552 19.146826 12 16 C9.90583142 13.39529228 7.67228439 10.92177568 5.4375 8.4375 C0 2.30536649 0 2.30536649 0 0 Z M74 27 C75.66881555 31.17203888 77.05805539 33.69018369 79.6875 37.1875 C83.10567203 41.76163566 86.32933885 46.42224438 89.45703125 51.19921875 C90.22080078 52.09060547 90.22080078 52.09060547 91 53 C91.99 53 92.98 53 94 53 C95.91816075 50.75993634 95.91816075 50.75993634 97.7578125 47.8203125 C98.46550781 46.74652344 99.17320312 45.67273438 99.90234375 44.56640625 C100.64335925 43.41935486 101.38424315 42.27221844 102.125 41.125 C102.87276791 39.98506648 103.62145505 38.84573538 104.37109375 37.70703125 C107.89597174 32.47710036 107.89597174 32.47710036 111 27 C98.79 27 86.58 27 74 27 Z " fill="#7D7D7D" transform="translate(209,360)"/>
<path d="M0 0 C6.93 0 13.86 0 21 0 C21.01417969 3.3 21.02835938 6.6 21.04296875 10 C21.07362639 13.2138068 21.11270568 16.42740927 21.15258789 19.64111328 C21.17571299 21.8659741 21.19015065 24.09094354 21.19555664 26.31591797 C21.20488604 29.52379619 21.24596597 32.72997886 21.29296875 35.9375 C21.2890361 36.92427734 21.28510345 37.91105469 21.28105164 38.92773438 C21.41996864 45.57808753 22.88185971 49.7561332 27 55 C33.36954724 49.21972145 33.36954724 49.21972145 35.43237305 41.32324219 C35.45216721 40.40258972 35.47196136 39.48193726 35.49235535 38.53338623 C35.49874527 37.54783752 35.50513519 36.56228882 35.51171875 35.546875 C35.52966995 34.53151672 35.54762115 33.51615845 35.56611633 32.47003174 C35.62025707 29.23006328 35.65412762 25.99024247 35.6875 22.75 C35.72066969 20.55206277 35.75515902 18.35414504 35.79101562 16.15625 C35.87846799 10.77081162 35.93850575 5.38604775 36 0 C42.6 0 49.2 0 56 0 C55.99045288 2.0728125 55.99045288 2.0728125 55.98071289 4.1875 C55.96622829 9.33914222 55.99770911 14.48967575 56.04272461 19.64111328 C56.05582365 21.86600971 56.05663605 24.09101511 56.04467773 26.31591797 C56.02960531 29.52419174 56.05944381 32.72947097 56.09765625 35.9375 C56.08340103 36.92427734 56.06914581 37.91105469 56.05445862 38.92773438 C56.19275637 45.5997525 57.77607934 48.90617908 62.50047302 53.63891602 C62.99531693 54.08807373 63.49016083 54.53723145 64 55 C69.3482748 48.40282849 70.8844348 43.47484783 70.8046875 35.05859375 C70.81839386 34.05031021 70.83210022 33.04202667 70.84622192 32.00318909 C70.88331567 28.81416358 70.87982081 25.62670941 70.875 22.4375 C70.89314113 20.26234567 70.91394825 18.08721185 70.9375 15.91210938 C70.99412918 10.6071685 70.99574648 5.30626864 71 0 C77.6 0 84.2 0 91 0 C94.0437439 52.1270409 94.0437439 52.1270409 83.1875 64.4375 C81.14126515 66.57391777 79.10060806 68.55752221 76.80932617 70.42749023 C74.89885513 71.95980444 74.89885513 71.95980444 73.49389648 74.15087891 C72 76 72 76 68.3046875 76.77734375 C66.82994937 76.8680866 65.3524202 76.91971315 63.875 76.9375 C62.73236694 76.95296875 62.73236694 76.95296875 61.56665039 76.96875 C57.22708419 76.78363467 55.38431099 76.30350467 51.87890625 73.53515625 C49.66553345 70.78349118 47.74708911 68.0661165 46 65 C45.55914062 65.7940625 45.11828125 66.588125 44.6640625 67.40625 C41.4154255 72.33521648 38.66498357 75.86019635 32.88671875 77.3984375 C27.97843042 78.14360249 23.56100057 78.10924131 19 76 C13.70791918 71.47707418 10.06278572 65.49335901 6.56713867 59.53881836 C5.15921468 57.09912816 5.15921468 57.09912816 3.72288513 55.54847717 C-0.83658991 50.16015389 -0.65534087 45.22509077 -0.48828125 38.37890625 C-0.48120651 37.27900864 -0.47413177 36.17911102 -0.46684265 35.04588318 C-0.43896976 31.55071519 -0.3762408 28.05717957 -0.3125 24.5625 C-0.28740812 22.18557009 -0.26459651 19.80861495 -0.24414062 17.43164062 C-0.18916572 11.62046975 -0.10293901 5.81051115 0 0 Z " fill="#B21C37" transform="translate(198,272)"/>
<path d="M0 0 C19.92977092 -1.94363857 19.92977092 -1.94363857 26.33203125 2.109375 C28.42043977 4.6722644 30.20156385 7.24054291 31.8515625 10.10400391 C33.56630884 12.93493929 35.58686479 15.50579859 37.6027832 18.12695312 C39.10669507 20.08243242 40.57861071 22.05777581 42.04296875 24.04296875 C45.30357596 28.40623837 48.65587268 32.70040774 52 37 C52.33 24.79 52.66 12.58 53 0 C59.6 0 66.2 0 73 0 C73 25.08 73 50.16 73 76 C56 76 56 76 52.27734375 73.23828125 C51.05004883 71.37524414 51.05004883 71.37524414 49.9375 69.3125 C49.00662302 67.85679724 48.07147765 66.40381802 47.1328125 64.953125 C46.64586914 64.16357422 46.15892578 63.37402344 45.65722656 62.56054688 C42.50034618 57.68291554 38.86752172 53.15323981 35.3125 48.5625 C33.93278964 46.75191455 32.5538208 44.94076368 31.17578125 43.12890625 C29.20036262 40.46681081 29.20036262 40.46681081 27 38 C26.67 50.54 26.34 63.08 26 76 C19.4 76 12.8 76 6 76 C5.99589111 74.00702881 5.99178223 72.01405762 5.98754883 69.96069336 C5.96811392 63.35874749 5.92574757 56.75725645 5.86790943 50.15553951 C5.83369115 46.15480565 5.8085376 42.15445155 5.80444336 38.15356445 C5.80014915 34.28878023 5.7715953 30.42485188 5.72656822 26.56033516 C5.71362874 25.08968666 5.70927297 23.61893554 5.71384621 22.14823723 C5.7331998 14.03093529 5.71743593 8.20738819 0 2 C0 1.34 0 0.68 0 0 Z " fill="#B21C37" transform="translate(331,272)"/>
<path d="M0 0 C2.619375 0.020625 5.23875 0.04125 7.9375 0.0625 C7.9375 6.6625 7.9375 13.2625 7.9375 20.0625 C5.37935547 20.30033203 5.37935547 20.30033203 2.76953125 20.54296875 C-40.38961854 24.78592369 -83.53499101 40.21142999 -112.0234375 74.734375 C-112.36632812 75.17265625 -112.70921875 75.6109375 -113.0625 76.0625 C-112.60875 76.805 -112.155 77.5475 -111.6875 78.3125 C-110.37505428 80.53356199 -109.19882841 82.75031872 -108.0625 85.0625 C-112.26964438 85.32471814 -116.47468891 85.48397604 -120.6875 85.625 C-122.47220703 85.73811523 -122.47220703 85.73811523 -124.29296875 85.85351562 C-132.8529429 86.06871051 -132.8529429 86.06871051 -136.30761719 83.19482422 C-138.06720595 80.77977112 -139.29443989 78.95591287 -140.0625 76.0625 C-138.87770653 71.89285707 -136.82077877 69.38844588 -133.875 66.25 C-131.11402821 63.27900183 -128.40801247 60.30341598 -125.8125 57.1875 C-95.48076736 22.61210752 -46.06515944 -0.52058836 0 0 Z " fill="#B21C37" transform="translate(293.0625,175.9375)"/>
<path d="M0 0 C18.48 0 36.96 0 56 0 C56 5.61 56 11.22 56 17 C44.45 17 32.9 17 21 17 C21 18.98 21 20.96 21 23 C21.67957764 23.25894043 22.35915527 23.51788086 23.05932617 23.78466797 C52.07978946 35.77834719 52.07978946 35.77834719 56.84259033 46.98205566 C59.48463423 56.94095247 57.27962347 66.93362867 56 77 C37.52 77 19.04 77 0 77 C0 71.39 0 65.78 0 60 C11.55 60 23.1 60 35 60 C33.8047464 53.06355326 33.8047464 53.06355326 29.74365234 50.67773438 C28.36621141 49.9664373 26.9796059 49.27270174 25.5859375 48.59375 C24.08146576 47.78168195 22.58150062 46.96122009 21.08569336 46.13330078 C20.31192352 45.70567444 19.53815369 45.2780481 18.74093628 44.83746338 C0.735793 34.65915893 0.735793 34.65915893 -1.55419922 26.94628906 C-3.2612144 17.74781998 -1.35472816 9.27783525 0 0 Z " fill="#B21C37" transform="translate(417,272)"/>
<path d="M0 0 C21.78 0 43.56 0 66 0 C66 5.61 66 11.22 66 17 C58.41 17 50.82 17 43 17 C43 36.47 43 55.94 43 76 C36.07 76 29.14 76 22 76 C22 56.53 22 37.06 22 17 C14.74 17 7.48 17 0 17 C0 11.39 0 5.78 0 0 Z " fill="#B21C37" transform="translate(125,272)"/>
<path d="M0 0 C9.20804515 -1.58793095 18.98224311 -3.00136391 28 0 C35.18874967 5.91498901 39.53124216 14.3792886 43.65673828 22.59155273 C44.77043355 25.11993072 44.77043355 25.11993072 47 26 C47.7113208 24.92516357 47.7113208 24.92516357 48.43701172 23.82861328 C50.19817422 21.16982324 51.96141399 18.51242664 53.72607422 15.85595703 C54.48928 14.70612086 55.25165624 13.55573362 56.01318359 12.40478516 C57.10816491 10.75017845 58.20638363 9.09771562 59.3046875 7.4453125 C59.96452637 6.45031738 60.62436523 5.45532227 61.30419922 4.43017578 C63 2 63 2 65 0 C67.70556641 -0.22705078 67.70556641 -0.22705078 71.1015625 -0.1953125 C72.31328125 -0.18886719 73.525 -0.18242187 74.7734375 -0.17578125 C76.04445313 -0.15902344 77.31546875 -0.14226562 78.625 -0.125 C79.90375 -0.11597656 81.1825 -0.10695313 82.5 -0.09765625 C85.66685167 -0.07402303 88.83333424 -0.04107629 92 0 C90.08834331 4.01295754 87.55825882 7.41337002 84.875 10.9375 C84.35147949 11.63061279 83.82795898 12.32372559 83.28857422 13.0378418 C80.25158836 17.0528625 77.19646576 21.05400887 74.140625 25.0546875 C73.48231689 25.91682861 72.82400879 26.77896973 72.14575195 27.66723633 C70.79644194 29.43354948 69.4460147 31.19900972 68.09448242 32.96362305 C64.6685711 37.4486541 61.28506763 41.95769038 57.97265625 46.52734375 C57.33505371 47.40543701 56.69745117 48.28353027 56.04052734 49.18823242 C54.82981297 50.86201713 53.62541687 52.54039527 52.42822266 54.22387695 C51.88858887 54.96984131 51.34895508 55.71580566 50.79296875 56.484375 C50.3239917 57.14147461 49.85501465 57.79857422 49.37182617 58.47558594 C48 60 48 60 45 61 C44.6596875 60.53440674 44.319375 60.06881348 43.96875 59.58911133 C37.06707755 50.15781991 30.10343116 40.78049885 23 31.5 C17.62936808 24.47973733 12.31009438 17.4253015 7.0625 10.3125 C6.46501953 9.50425781 5.86753906 8.69601562 5.25195312 7.86328125 C4.70603516 7.12078125 4.16011719 6.37828125 3.59765625 5.61328125 C3.11820557 4.96141846 2.63875488 4.30955566 2.14477539 3.63793945 C1 2 1 2 0 0 Z " fill="#241815" transform="translate(255,387)"/>
<path d="M0 0 C6.93 0 13.86 0 21 0 C21 25.08 21 50.16 21 76 C14.07 76 7.14 76 0 76 C0 50.92 0 25.84 0 0 Z " fill="#B21C37" transform="translate(302,272)"/>
<path d="M0 0 C9.20985907 -1.58824376 18.97978183 -2.99846548 28 0 C35.22298998 5.91101082 39.60099027 14.37434239 43.77026367 22.59155273 C44.78848769 24.89122475 44.78848769 24.89122475 46 26 C46.08851529 28.59359322 46.11525945 31.16039691 46.09765625 33.75390625 C46.0962413 34.52935287 46.09482635 35.3047995 46.09336853 36.10374451 C46.08775345 38.59003494 46.07519846 41.0762366 46.0625 43.5625 C46.05748694 45.24413933 46.0529237 46.92578006 46.04882812 48.60742188 C46.03777913 52.73831566 46.02050445 56.86914276 46 61 C43.45106232 58.53144348 41.18773775 56.06594514 39.109375 53.19140625 C38.57296387 52.45510986 38.03655273 51.71881348 37.48388672 50.96020508 C36.9117041 50.1689624 36.33952148 49.37771973 35.75 48.5625 C30.53654244 41.41769654 25.24840152 34.3378158 19.875 27.3125 C18.5389793 25.56386565 17.20304075 23.81516853 15.8671875 22.06640625 C14.89990723 20.80014404 14.89990723 20.80014404 13.91308594 19.50830078 C10.93040007 15.59761744 7.96008034 11.67781614 5 7.75 C4.48937012 7.07622314 3.97874023 6.40244629 3.45263672 5.70825195 C0 1.11625724 0 1.11625724 0 0 Z " fill="#B21C37" transform="translate(255,387)"/>
<path d="M0 0 C2.5906173 1.39075245 4.51102829 2.85382877 6.23046875 5.24609375 C6.79296875 7.24609375 6.79296875 7.24609375 6.79296875 11.24609375 C-2.37989777 11.87629069 -2.37989777 11.87629069 -5.83203125 9.24609375 C-6.51265625 8.25609375 -6.51265625 8.25609375 -7.20703125 7.24609375 C-10.93317278 8.36463961 -10.93317278 8.36463961 -13.20703125 11.24609375 C-13.92440454 18.4341735 -13.92440454 18.4341735 -11.51953125 24.99609375 C-9.26027925 26.45413245 -9.26027925 26.45413245 -6.58203125 26.24609375 C-4.06209352 25.45032418 -4.06209352 25.45032418 -2.89453125 23.18359375 C-2.66765625 22.54421875 -2.44078125 21.90484375 -2.20703125 21.24609375 C-4.18703125 21.24609375 -6.16703125 21.24609375 -8.20703125 21.24609375 C-8.20703125 18.93609375 -8.20703125 16.62609375 -8.20703125 14.24609375 C-3.25703125 14.24609375 1.69296875 14.24609375 6.79296875 14.24609375 C6.79296875 20.51609375 6.79296875 26.78609375 6.79296875 33.24609375 C3.45963542 33.24609375 0.12630208 33.24609375 -3.20703125 33.24609375 C-4.69203125 33.74109375 -4.69203125 33.74109375 -6.20703125 34.24609375 C-11.75945871 34.61018735 -15.50163408 34.56125994 -20.20703125 31.24609375 C-24.82441655 25.77813748 -24.64835116 20.64061464 -24.640625 13.6484375 C-24.00225087 8.63921347 -22.40791678 5.35691287 -18.70703125 1.93359375 C-13.35750756 -1.67733474 -6.09293188 -2.08130239 0 0 Z " fill="#7D7D7D" transform="translate(324.20703125,221.75390625)"/>
<path d="M0 0 C2.97 0 5.94 0 9 0 C9 8.25 9 16.5 9 25 C13.95 25 18.9 25 24 25 C24 27.64 24 30.28 24 33 C16.08 33 8.16 33 0 33 C0 22.11 0 11.22 0 0 Z " fill="#7D7D7D" transform="translate(275,222)"/>
<path d="M0 0 C0.99 0.66 1.98 1.32 3 2 C3.3984375 4.53125 3.3984375 4.53125 3.375 7.5 C3.38273437 8.4796875 3.39046875 9.459375 3.3984375 10.46875 C3.26695312 11.3040625 3.13546875 12.139375 3 13 C-0.46923881 15.31282587 -1.92205575 15.42478586 -6 15 C-8.1541839 13.397004 -8.90646291 12.5062007 -9.3984375 9.84375 C-9.39070313 9.0703125 -9.38296875 8.296875 -9.375 7.5 C-9.38273437 6.7265625 -9.39046875 5.953125 -9.3984375 5.15625 C-8.40976214 -0.19422844 -4.83413338 -0.50355556 0 0 Z " fill="#F3F3F3" transform="translate(308,366)"/>
<path d="M0 0 C3.3 0 6.6 0 10 0 C10 0.99 10 1.98 10 3 C7.69 3 5.38 3 3 3 C3 3.99 3 4.98 3 6 C4.98 6 6.96 6 9 6 C9 6.99 9 7.98 9 9 C7.02 9 5.04 9 3 9 C3 9.99 3 10.98 3 12 C5.31 12 7.62 12 10 12 C10 12.99 10 13.98 10 15 C6.7 15 3.4 15 0 15 C0 10.05 0 5.1 0 0 Z " fill="#E5E5E5" transform="translate(281,366)"/>
<path d="M0 0 C0.99 0 1.98 0 3 0 C3.33 3.63 3.66 7.26 4 11 C5.32 11 6.64 11 8 11 C8.33 7.37 8.66 3.74 9 0 C9.99 0 10.98 0 12 0 C12.08107583 1.93681161 12.13922475 3.8745934 12.1875 5.8125 C12.22230469 6.89144531 12.25710938 7.97039062 12.29296875 9.08203125 C12 12 12 12 10.67578125 13.86328125 C8.06649976 15.63321345 6.0622653 15.38278316 3 15 C1.32421875 13.86328125 1.32421875 13.86328125 0 12 C-0.29296875 9.08203125 -0.29296875 9.08203125 -0.1875 5.8125 C-0.16042969 4.72582031 -0.13335937 3.63914062 -0.10546875 2.51953125 C-0.07066406 1.68808594 -0.03585937 0.85664063 0 0 Z " fill="#F0F0F0" transform="translate(320,366)"/>
<path d="M0 0 C0 0.99 0 1.98 0 3 C-1.98 3 -3.96 3 -6 3 C-6 3.99 -6 4.98 -6 6 C-5.030625 6.144375 -4.06125 6.28875 -3.0625 6.4375 C0 7 0 7 1 8 C1.1875 10.4375 1.1875 10.4375 1 13 C-1 15 -1 15 -4.625 15.125 C-5.73875 15.08375 -6.8525 15.0425 -8 15 C-8.33 13.68 -8.66 12.36 -9 11 C-6.69 11.33 -4.38 11.66 -2 12 C-4.36620011 9.38472619 -6.942048 7.73559438 -10 6 C-9.625 3.5625 -9.625 3.5625 -9 1 C-6.04335481 -0.4783226 -3.25770263 -0.06032783 0 0 Z " fill="#EDEDED" transform="translate(271,366)"/>
<path d="M0 0 C0.99 0 1.98 0 3 0 C3 3.96 3 7.92 3 12 C5.31 12 7.62 12 10 12 C10 12.99 10 13.98 10 15 C6.7 15 3.4 15 0 15 C0 10.05 0 5.1 0 0 Z " fill="#E9E9E9" transform="translate(341,366)"/>
<path d="M0 0 C2.5 0.125 2.5 0.125 3.5 1.125 C3.625 4.625 3.625 4.625 3.5 8.125 C2.5 9.125 2.5 9.125 0 9.25 C-2.5 9.125 -2.5 9.125 -3.5 8.125 C-3.625 4.625 -3.625 4.625 -3.5 1.125 C-2.5 0.125 -2.5 0.125 0 0 Z " fill="#858585" transform="translate(305.5,368.875)"/>
<path d="M0 0 C0.33 0 0.66 0 1 0 C1.22786458 1.98567708 1.45572917 3.97135417 1.68359375 5.95703125 C1.97170735 8.19396393 1.97170735 8.19396393 3 11 C-0.875 10.125 -0.875 10.125 -2 9 C-2.26293056 4.96839809 -2.29404844 3.44107266 0 0 Z " fill="#F9F9F9" transform="translate(301,369)"/>
</svg>
