<svg width="11" height="12" viewBox="0 0 11 12" fill="none" xmlns="http://www.w3.org/2000/svg">
<path d="M5.14062 8.47656C3.77344 8.47656 2.77539 7.36914 2.77539 5.5918C2.77539 3.82812 3.78711 2.7207 5.1543 2.7207C6.13867 2.7207 6.54883 3.34961 6.71289 3.66406H6.78125V2.83008H7.82031V6.82227C7.83398 7.35547 8.06641 7.61523 8.50391 7.61523C9.35156 7.61523 9.91211 6.63086 9.92578 5.20898C9.93945 2.625 8.06641 0.943359 5.45508 0.943359C2.74805 0.957031 0.998047 3.04883 0.998047 5.5918C0.998047 8.36719 2.51562 10.2812 5.40039 10.2539C6.35742 10.2402 6.98633 10.1855 7.82031 9.95312V10.8828C7.10938 11.0742 6.30273 11.1973 5.40039 11.1973C2.06445 11.1973 0.0136719 9.06445 0.0136719 5.5918C0 2.36523 2.26953 0 5.45508 0C8.72266 0 10.9238 2.22852 10.9102 5.16797C10.9102 7.28711 9.81641 8.53125 8.43555 8.53125C7.57422 8.53125 6.9248 8.0459 6.87695 7.41016H6.78125C6.61719 7.71094 6.20703 8.47656 5.14062 8.47656ZM5.31836 7.47852C6.28906 7.47852 6.78125 6.71289 6.79492 5.57812C6.78125 4.4707 6.30273 3.71875 5.31836 3.71875C4.36133 3.71875 3.8418 4.53906 3.8418 5.57812C3.8418 6.64453 4.375 7.47852 5.31836 7.47852Z" fill="#FFC300"/>
</svg>
