<svg width="30" height="30" viewBox="0 0 30 30" fill="none" xmlns="http://www.w3.org/2000/svg">
<g filter="url(#filter0_i_1_1812)">
<rect width="30" height="30" rx="15" fill="white"/>
<mask id="path-2-inside-1_1_1812" fill="white">
<path d="M6.32773 8.22818C10.0679 3.44091 16.9808 2.59211 21.7681 6.33233C26.5554 10.0726 27.4042 16.9855 23.664 21.7727C19.9237 26.56 13.0108 27.4088 8.22358 23.6686C3.43631 19.9284 2.5875 13.0155 6.32773 8.22818Z"/>
</mask>
<g clip-path="url(#paint0_diamond_1_1812_clip_path)" data-figma-skip-parse="true" mask="url(#path-2-inside-1_1_1812)"><g transform="matrix(0.00866812 0.00677227 -0.00677227 0.00866812 21.7681 6.33233)"><rect x="0" y="0" width="1090.91" height="2090.91" fill="url(#paint0_diamond_1_1812)" opacity="1" shape-rendering="crispEdges"/><rect x="0" y="0" width="1090.91" height="2090.91" transform="scale(1 -1)" fill="url(#paint0_diamond_1_1812)" opacity="1" shape-rendering="crispEdges"/><rect x="0" y="0" width="1090.91" height="2090.91" transform="scale(-1 1)" fill="url(#paint0_diamond_1_1812)" opacity="1" shape-rendering="crispEdges"/><rect x="0" y="0" width="1090.91" height="2090.91" transform="scale(-1)" fill="url(#paint0_diamond_1_1812)" opacity="1" shape-rendering="crispEdges"/></g></g><path d="M6.32773 8.22818M23.664 21.7727M23.664 21.7727M6.32773 8.22818M21.7681 6.33233M23.664 21.7727M8.22358 23.6686M6.32773 8.22818M8.22358 23.6686L8.83924 22.8806C4.48717 19.4804 3.71553 13.1959 7.11574 8.84384L6.32773 8.22818L5.53972 7.61252C1.45947 12.835 2.38544 20.3763 7.60792 24.4566L8.22358 23.6686ZM23.664 21.7727L22.876 21.1571C19.4758 25.5091 13.1913 26.2808 8.83924 22.8806L8.22358 23.6686L7.60792 24.4566C12.8304 28.5368 20.3717 27.6109 24.452 22.3884L23.664 21.7727ZM21.7681 6.33233L21.1525 7.12034C25.5045 10.5205 26.2762 16.805 22.876 21.1571L23.664 21.7727L24.452 22.3884C28.5322 17.1659 27.6063 9.62456 22.3838 5.54432L21.7681 6.33233ZM21.7681 6.33233L22.3838 5.54432C17.1613 1.46408 9.61996 2.39004 5.53972 7.61252L6.32773 8.22818L7.11574 8.84384C10.5159 4.49178 16.8004 3.72014 21.1525 7.12034L21.7681 6.33233Z" data-figma-gradient-fill="{&#34;type&#34;:&#34;GRADIENT_DIAMOND&#34;,&#34;stops&#34;:[{&#34;color&#34;:{&#34;r&#34;:0.83921569585800171,&#34;g&#34;:0.15686275064945221,&#34;b&#34;:0.15686275064945221,&#34;a&#34;:1.0},&#34;position&#34;:0.99999988079071045},{&#34;color&#34;:{&#34;r&#34;:0.0,&#34;g&#34;:0.0,&#34;b&#34;:0.0,&#34;a&#34;:0.0},&#34;position&#34;:1.0}],&#34;stopsVar&#34;:[{&#34;color&#34;:{&#34;r&#34;:0.83921569585800171,&#34;g&#34;:0.15686275064945221,&#34;b&#34;:0.15686275064945221,&#34;a&#34;:1.0},&#34;position&#34;:0.99999988079071045},{&#34;color&#34;:{&#34;r&#34;:0.0,&#34;g&#34;:0.0,&#34;b&#34;:0.0,&#34;a&#34;:0.0},&#34;position&#34;:1.0}],&#34;transform&#34;:{&#34;m00&#34;:17.336242675781250,&#34;m01&#34;:-13.544544219970703,&#34;m02&#34;:19.872270584106445,&#34;m10&#34;:13.544544219970703,&#34;m11&#34;:17.336242675781250,&#34;m12&#34;:-9.1080627441406250},&#34;opacity&#34;:1.0,&#34;blendMode&#34;:&#34;NORMAL&#34;,&#34;visible&#34;:true}" mask="url(#path-2-inside-1_1_1812)"/>
<mask id="path-4-inside-2_1_1812" fill="white">
<path d="M6.33227 21.7682C2.59205 16.9809 3.44085 10.068 8.22812 6.32783C13.0154 2.5876 19.9283 3.4364 23.6685 8.22368C27.4087 13.0109 26.5599 19.9238 21.7727 23.6641C16.9854 27.4043 10.0725 26.5555 6.33227 21.7682Z"/>
</mask>
<g clip-path="url(#paint1_diamond_1_1812_clip_path)" data-figma-skip-parse="true" mask="url(#path-4-inside-2_1_1812)"><g transform="matrix(0.00866812 -0.00677227 0.00677227 0.00866812 8.22812 6.32783)"><rect x="0" y="0" width="1090.91" height="2090.91" fill="url(#paint1_diamond_1_1812)" opacity="1" shape-rendering="crispEdges"/><rect x="0" y="0" width="1090.91" height="2090.91" transform="scale(1 -1)" fill="url(#paint1_diamond_1_1812)" opacity="1" shape-rendering="crispEdges"/><rect x="0" y="0" width="1090.91" height="2090.91" transform="scale(-1 1)" fill="url(#paint1_diamond_1_1812)" opacity="1" shape-rendering="crispEdges"/><rect x="0" y="0" width="1090.91" height="2090.91" transform="scale(-1)" fill="url(#paint1_diamond_1_1812)" opacity="1" shape-rendering="crispEdges"/></g></g><path d="M6.33227 21.7682M23.6685 8.22368M23.6685 8.22368M6.33227 21.7682M8.22812 6.32783M23.6685 8.22368M21.7727 23.6641M6.33227 21.7682M21.7727 23.6641L21.157 22.8761C16.8049 26.2763 10.5205 25.5046 7.12028 21.1526L6.33227 21.7682L5.54426 22.3839C9.6245 27.6064 17.1659 28.5323 22.3883 24.4521L21.7727 23.6641ZM23.6685 8.22368L22.8805 8.83934C26.2807 13.1914 25.5091 19.4759 21.157 22.8761L21.7727 23.6641L22.3883 24.4521C27.6108 20.3718 28.5368 12.8305 24.4565 7.60801L23.6685 8.22368ZM8.22812 6.32783L8.84378 7.11584C13.1958 3.71563 19.4803 4.48727 22.8805 8.83934L23.6685 8.22368L24.4565 7.60801C20.3763 2.38554 12.8349 1.45957 7.61246 5.53981L8.22812 6.32783ZM8.22812 6.32783L7.61246 5.53981C2.38998 9.62006 1.46402 17.1614 5.54426 22.3839L6.33227 21.7682L7.12028 21.1526C3.72008 16.8005 4.49172 10.516 8.84378 7.11584L8.22812 6.32783Z" data-figma-gradient-fill="{&#34;type&#34;:&#34;GRADIENT_DIAMOND&#34;,&#34;stops&#34;:[{&#34;color&#34;:{&#34;r&#34;:0.83921569585800171,&#34;g&#34;:0.15686275064945221,&#34;b&#34;:0.15686275064945221,&#34;a&#34;:1.0},&#34;position&#34;:0.99999988079071045},{&#34;color&#34;:{&#34;r&#34;:0.0,&#34;g&#34;:0.0,&#34;b&#34;:0.0,&#34;a&#34;:0.0},&#34;position&#34;:1.0}],&#34;stopsVar&#34;:[{&#34;color&#34;:{&#34;r&#34;:0.83921569585800171,&#34;g&#34;:0.15686275064945221,&#34;b&#34;:0.15686275064945221,&#34;a&#34;:1.0},&#34;position&#34;:0.99999988079071045},{&#34;color&#34;:{&#34;r&#34;:0.0,&#34;g&#34;:0.0,&#34;b&#34;:0.0,&#34;a&#34;:0.0},&#34;position&#34;:1.0}],&#34;transform&#34;:{&#34;m00&#34;:17.336242675781250,&#34;m01&#34;:13.544544219970703,&#34;m02&#34;:-7.2122707366943359,&#34;m10&#34;:-13.544544219970703,&#34;m11&#34;:17.336242675781250,&#34;m12&#34;:4.4319758415222168},&#34;opacity&#34;:1.0,&#34;blendMode&#34;:&#34;NORMAL&#34;,&#34;visible&#34;:true}" mask="url(#path-4-inside-2_1_1812)"/>
</g>
<defs>
<filter id="filter0_i_1_1812" x="0" y="0" width="30" height="30" filterUnits="userSpaceOnUse" color-interpolation-filters="sRGB">
<feFlood flood-opacity="0" result="BackgroundImageFix"/>
<feBlend mode="normal" in="SourceGraphic" in2="BackgroundImageFix" result="shape"/>
<feColorMatrix in="SourceAlpha" type="matrix" values="0 0 0 0 0 0 0 0 0 0 0 0 0 0 0 0 0 0 127 0" result="hardAlpha"/>
<feOffset dx="-3" dy="-3"/>
<feComposite in2="hardAlpha" operator="arithmetic" k2="-1" k3="1"/>
<feColorMatrix type="matrix" values="0 0 0 0 0 0 0 0 0 0 0 0 0 0 0 0 0 0 0.06 0"/>
<feBlend mode="normal" in2="shape" result="effect1_innerShadow_1_1812"/>
</filter>
<clipPath id="paint0_diamond_1_1812_clip_path"><path d="M6.32773 8.22818M23.664 21.7727M23.664 21.7727M6.32773 8.22818M21.7681 6.33233M23.664 21.7727M8.22358 23.6686M6.32773 8.22818M8.22358 23.6686L8.83924 22.8806C4.48717 19.4804 3.71553 13.1959 7.11574 8.84384L6.32773 8.22818L5.53972 7.61252C1.45947 12.835 2.38544 20.3763 7.60792 24.4566L8.22358 23.6686ZM23.664 21.7727L22.876 21.1571C19.4758 25.5091 13.1913 26.2808 8.83924 22.8806L8.22358 23.6686L7.60792 24.4566C12.8304 28.5368 20.3717 27.6109 24.452 22.3884L23.664 21.7727ZM21.7681 6.33233L21.1525 7.12034C25.5045 10.5205 26.2762 16.805 22.876 21.1571L23.664 21.7727L24.452 22.3884C28.5322 17.1659 27.6063 9.62456 22.3838 5.54432L21.7681 6.33233ZM21.7681 6.33233L22.3838 5.54432C17.1613 1.46408 9.61996 2.39004 5.53972 7.61252L6.32773 8.22818L7.11574 8.84384C10.5159 4.49178 16.8004 3.72014 21.1525 7.12034L21.7681 6.33233Z"/></clipPath><clipPath id="paint1_diamond_1_1812_clip_path"><path d="M6.33227 21.7682M23.6685 8.22368M23.6685 8.22368M6.33227 21.7682M8.22812 6.32783M23.6685 8.22368M21.7727 23.6641M6.33227 21.7682M21.7727 23.6641L21.157 22.8761C16.8049 26.2763 10.5205 25.5046 7.12028 21.1526L6.33227 21.7682L5.54426 22.3839C9.6245 27.6064 17.1659 28.5323 22.3883 24.4521L21.7727 23.6641ZM23.6685 8.22368L22.8805 8.83934C26.2807 13.1914 25.5091 19.4759 21.157 22.8761L21.7727 23.6641L22.3883 24.4521C27.6108 20.3718 28.5368 12.8305 24.4565 7.60801L23.6685 8.22368ZM8.22812 6.32783L8.84378 7.11584C13.1958 3.71563 19.4803 4.48727 22.8805 8.83934L23.6685 8.22368L24.4565 7.60801C20.3763 2.38554 12.8349 1.45957 7.61246 5.53981L8.22812 6.32783ZM8.22812 6.32783L7.61246 5.53981C2.38998 9.62006 1.46402 17.1614 5.54426 22.3839L6.33227 21.7682L7.12028 21.1526C3.72008 16.8005 4.49172 10.516 8.84378 7.11584L8.22812 6.32783Z"/></clipPath><linearGradient id="paint0_diamond_1_1812" x1="0" y1="0" x2="500" y2="500" gradientUnits="userSpaceOnUse">
<stop offset="1" stop-color="#D62828"/>
<stop offset="1" stop-opacity="0"/>
</linearGradient>
<linearGradient id="paint1_diamond_1_1812" x1="0" y1="0" x2="500" y2="500" gradientUnits="userSpaceOnUse">
<stop offset="1" stop-color="#D62828"/>
<stop offset="1" stop-opacity="0"/>
</linearGradient>
</defs>
</svg>
